<?xml version="1.0" encoding="UTF-8"?>
<svg width="16px" height="16px" viewBox="0 0 16 16" version="1.1" xmlns="http://www.w3.org/2000/svg" xmlns:xlink="http://www.w3.org/1999/xlink">
    <!-- Generator: Sketch 51.3 (57544) - http://www.bohemiancoding.com/sketch -->
    <title>Icon-Close</title>
    <desc>Created with Sketch.</desc>
    <defs></defs>
    <g id="Icon-Close" stroke="none" stroke-width="1" fill="none" fill-rule="evenodd">
        <path d="M8,1.34375 C9.8333425,1.34375 11.4010352,1.99478516 12.703125,3.296875 C14.0052148,4.59896484 14.65625,6.1666575 14.65625,8 C14.65625,9.8333425 14.0052148,11.4010352 12.703125,12.703125 C11.4010352,14.0052148 9.8333425,14.65625 8,14.65625 C6.1666575,14.65625 4.59896484,14.0052148 3.296875,12.703125 C1.99478516,11.4010352 1.34375,9.8333425 1.34375,8 C1.34375,6.1666575 1.99478516,4.59896484 3.296875,3.296875 C4.59896484,1.99478516 6.1666575,1.34375 8,1.34375 Z" id="" fill="#F5F5F5"></path>
        <path d="M11.0609073,10.1234073 L9.07892136,8.14142136 C9.0008165,8.0633165 9.0008165,7.9366835 9.07892136,7.85857864 L11.0609073,5.87659271 C11.217117,5.720383 11.217117,5.467117 11.0609073,5.31090729 L10.6890927,4.93909271 C10.532883,4.782883 10.279617,4.782883 10.1234073,4.93909271 L8.14142136,6.92107864 C8.0633165,6.9991835 7.9366835,6.9991835 7.85857864,6.92107864 L5.87659271,4.93909271 C5.720383,4.782883 5.467117,4.782883 5.31090729,4.93909271 L4.93909271,5.31090729 C4.782883,5.467117 4.782883,5.720383 4.93909271,5.87659271 L6.92107864,7.85857864 C6.9991835,7.9366835 6.9991835,8.0633165 6.92107864,8.14142136 L4.93909271,10.1234073 C4.782883,10.279617 4.782883,10.532883 4.93909271,10.6890927 L5.31090729,11.0609073 C5.467117,11.217117 5.720383,11.217117 5.87659271,11.0609073 L7.85857864,9.07892136 C7.9366835,9.0008165 8.0633165,9.0008165 8.14142136,9.07892136 L10.1234073,11.0609073 C10.279617,11.217117 10.532883,11.217117 10.6890927,11.0609073 L11.0609073,10.6890927 C11.217117,10.532883 11.217117,10.279617 11.0609073,10.1234073 Z" id="Path" fill="#444444"></path>
    </g>
</svg>