<svg xmlns="http://www.w3.org/2000/svg" width="36" height="20">
    <path fill="#8A9399" fill-rule="evenodd" d="M25.076 1.217a.41.41 0 0 1-.445.335h-2.828L20.718 5.17a.401.401 0 0 1-.378.28H.84v6.372h2.34V6.619h.78v5.203H6.3V6.619h.78v5.203h2.34V6.619h.78v5.203h2.34V6.619h.78v5.203h2.341V6.619h.78v5.203h2.34V6.619h.78v5.203h2.292l.036-8.723c0-.204.186-.39.39-.39h9.836a.393.393 0 0 1 .207.11c2.835 2.842 3.62 6.81 3.62 8.88v5.043c0 .204-.186.39-.39.39h-5.96a2.745 2.745 0 0 1-2.62 1.961 2.75 2.75 0 0 1-2.62-1.949H13.21a2.75 2.75 0 0 1-2.621 1.95 2.745 2.745 0 0 1-2.62-1.962H6.19a2.745 2.745 0 0 1-2.62 1.961 2.745 2.745 0 0 1-2.621-1.96h-.5a.405.405 0 0 1-.39-.39V5.06c0-.204.186-.39.39-.39h19.599l1.084-3.63a.401.401 0 0 1 .378-.268h3.12c0-.012.39-.012.446.445zm-2.408 2.272l-.036 8.723c0 .204-.186.39-.39.39H.839v3.75a2.735 2.735 0 0 1 2.73-2.716c1.5 0 2.724 1.22 2.73 2.716h1.56a2.735 2.735 0 0 1 2.73-2.716 2.735 2.735 0 0 1 2.73 2.729h10.922a2.735 2.735 0 0 1 2.73-2.729c1.499 0 2.723 1.22 2.73 2.716h5.46V11.7c0-1.837-.767-5.582-3.303-8.21h-9.19zm7.886 1.571c.043.01.084.026.122.049 1.087.652 1.81 1.82 2.267 3.24.457 1.42.658 3.114.658 4.897 0 .204-.186.39-.39.39h-3.51a.4.4 0 0 1-.378-.305c-.158-.63-.766-1.353-1.633-1.9-.867-.547-1.976-.913-3.06-.913a.405.405 0 0 1-.39-.39V5.45c0-.204.186-.39.39-.39h5.924zm-.207.78H25.02v3.959c1.116.076 2.202.418 3.083.974.875.553 1.51 1.28 1.816 2.083h2.877c-.029-1.573-.197-3.07-.585-4.275-.41-1.273-1.037-2.213-1.865-2.741zm-3.376 8.576c-1.082 0-1.95.868-1.95 1.949 0 1.08.868 1.949 1.95 1.949 1.081 0 1.95-.868 1.95-1.95 0-1.18-.78-1.96-1.95-1.948zm-16.381 0c-1.082 0-1.95.868-1.95 1.949 0 1.08.868 1.949 1.95 1.949 1.081 0 1.95-.868 1.95-1.95 0-1.18-.78-1.96-1.95-1.948zm-7.02 0c-1.082 0-1.95.868-1.95 1.949 0 1.08.868 1.949 1.95 1.949 1.08 0 1.95-.868 1.95-1.95 0-1.18-.78-1.96-1.95-1.948zm7.02 1.276a.673.673 0 1 1 0 1.345.673.673 0 0 1 0-1.345zm16.38 0a.673.673 0 1 1 .001 1.345.673.673 0 0 1 0-1.345zm-23.4 0a.673.673 0 1 1 0 1.345.673.673 0 0 1 0-1.345z"/>
</svg>
