<?xml version="1.0" encoding="UTF-8"?>
<svg width="16px" height="16px" viewBox="0 0 16 16" version="1.1" xmlns="http://www.w3.org/2000/svg" xmlns:xlink="http://www.w3.org/1999/xlink">
    <!-- Generator: Sketch 51.3 (57544) - http://www.bohemiancoding.com/sketch -->
    <title>Icon-Sort-Inactivate</title>
    <desc>Created with Sketch.</desc>
    <defs></defs>
    <g id="Icon-Sort-Inactivate" stroke="none" stroke-width="1" fill="none" fill-rule="evenodd">
        <path d="M8.28284271,11.8421573 L9.84215729,10.2828427 C9.998367,10.126633 10.251633,10.126633 10.4078427,10.2828427 L10.7796573,10.6546573 C10.935867,10.810867 10.935867,11.064133 10.7796573,11.2203427 L8.28284271,13.7171573 C8.126633,13.873367 7.873367,13.873367 7.71715729,13.7171573 L5.22034271,11.2203427 C5.064133,11.064133 5.064133,10.810867 5.22034271,10.6546573 L5.59215729,10.2828427 C5.748367,10.126633 6.001633,10.126633 6.15784271,10.2828427 L7.71715729,11.8421573 C7.873367,11.998367 8.126633,11.998367 8.28284271,11.8421573 Z M7.71715729,4.15784271 L6.15784271,5.71715729 C6.001633,5.873367 5.748367,5.873367 5.59215729,5.71715729 L5.22034271,5.34534271 C5.064133,5.189133 5.064133,4.935867 5.22034271,4.77965729 L7.71715729,2.28284271 C7.873367,2.126633 8.126633,2.126633 8.28284271,2.28284271 L10.7796573,4.77965729 C10.935867,4.935867 10.935867,5.189133 10.7796573,5.34534271 L10.4078427,5.71715729 C10.251633,5.873367 9.998367,5.873367 9.84215729,5.71715729 L8.28284271,4.15784271 C8.126633,4.001633 7.873367,4.001633 7.71715729,4.15784271 Z" id="" fill="#444444"></path>
    </g>
</svg>