<?xml version="1.0" encoding="UTF-8"?>
<svg width="16px" height="16px" viewBox="0 0 16 16" version="1.1" xmlns="http://www.w3.org/2000/svg" xmlns:xlink="http://www.w3.org/1999/xlink">
    <!-- Generator: Sketch 51.3 (57544) - http://www.bohemiancoding.com/sketch -->
    <title>Icon-Collapse</title>
    <desc>Created with Sketch.</desc>
    <defs></defs>
    <g id="Icon-Collapse" stroke="none" stroke-width="1" fill="none" fill-rule="evenodd">
        <path d="M8,1.34375 C9.8333425,1.34375 11.4010352,1.99478516 12.703125,3.296875 C14.0052148,4.59896484 14.65625,6.1666575 14.65625,8 C14.65625,9.8333425 14.0052148,11.4010352 12.703125,12.703125 C11.4010352,14.0052148 9.8333425,14.65625 8,14.65625 C6.1666575,14.65625 4.59896484,14.0052148 3.296875,12.703125 C1.99478516,11.4010352 1.34375,9.8333425 1.34375,8 C1.34375,6.1666575 1.99478516,4.59896484 3.296875,3.296875 C4.59896484,1.99478516 6.1666575,1.34375 8,1.34375 Z" id="Path" fill="#F5F5F5"></path>
        <path d="M11.34375,8.25625 L11.34375,7.74375 C11.34375,7.5228361 11.1646639,7.34375 10.94375,7.34375 L5.05625,7.34375 C4.8353361,7.34375 4.65625,7.5228361 4.65625,7.74375 L4.65625,8.25625 C4.65625,8.4771639 4.8353361,8.65625 5.05625,8.65625 L10.94375,8.65625 C11.1646639,8.65625 11.34375,8.4771639 11.34375,8.25625 Z" id="" fill="#444444"></path>
    </g>
</svg>