<?xml version="1.0" encoding="UTF-8"?>
<svg width="27px" height="26px" viewBox="0 0 27 26" version="1.1" xmlns="http://www.w3.org/2000/svg" xmlns:xlink="http://www.w3.org/1999/xlink">
    <!-- Generator: Sketch 51.3 (57544) - http://www.bohemiancoding.com/sketch -->
    <title>Icon-Notifications-Unread</title>
    <desc>Created with Sketch.</desc>
    <defs></defs>
    <g id="Icon-Notifications-Unread" stroke="none" stroke-width="1" fill="none" fill-rule="evenodd">
        <g id="Group" transform="translate(8.000000, 4.000000)" stroke="#444444">
            <path d="M7.5,19 C7.5,20.146843 8.40078586,21.076543 9.5119615,21.076543 C10.6231371,21.076543 11.523923,20.146843 11.523923,19" id="Shape"></path>
            <path d="M2.34798295,15.6 L2.4118419,14.9738669 C2.49248846,14.1831323 2.55885167,12.8778574 2.55885167,12.0803659 L2.55885167,8.93573334 C2.55885167,5.7601441 4.55092908,2.99274963 7.41570437,2.02717162 C7.53303057,0.891598561 8.47167508,0 9.61818182,0 C10.7651389,0 11.7033598,0.892859821 11.8206588,2.02736154 C14.6851013,2.99333219 16.677512,5.7617451 16.677512,8.93573334 L16.677512,12.0803659 C16.677512,12.878417 16.7437084,14.181497 16.8245217,14.9738669 L16.8883807,15.6 L16.9165365,15.6 C17.1128617,15.6 17.4073495,15.6 17.8,15.6 C18.3522847,15.6 18.8,16.0477153 18.8,16.6 C18.8,17.1522848 18.3522847,17.6812001 17.8,17.6812001 L15.7450285,17.6812001 C15.7359264,17.6813874 15.7267948,17.6814815 15.7176343,17.6814815 L3.51872938,17.6814815 C3.50958353,17.6814815 3.50046611,17.6813874 3.49137789,17.6812001 L1.5,17.6812001 C0.94771525,17.6812001 0.5,17.1522848 0.5,16.6 C0.5,16.0477153 0.94771525,15.6 1.5,15.6 C1.86966926,15.6 2.15233025,15.6 2.34798295,15.6 Z" id="Combined-Shape"></path>
        </g>
        <g id="Group-5" transform="translate(0.500000, 0.000000)">
            <circle id="Oval-5" fill="#F67F65" cx="8" cy="8" r="8"></circle>
            <text id="12" font-family="Rubik-Medium, Rubik" font-size="10" font-weight="400" line-spacing="16" fill="#FFFFFF">
                <tspan x="2.13557873" y="9.35004332">12</tspan>
            </text>
        </g>
    </g>
</svg>