<?xml version="1.0" encoding="UTF-8"?>
<svg width="16px" height="16px" viewBox="0 0 16 16" version="1.1" xmlns="http://www.w3.org/2000/svg" xmlns:xlink="http://www.w3.org/1999/xlink">
    <!-- Generator: Sketch 51.3 (57544) - http://www.bohemiancoding.com/sketch -->
    <title>Icon-Settings</title>
    <desc>Created with Sketch.</desc>
    <defs></defs>
    <g id="Icon-Settings" stroke="none" stroke-width="1" fill="none" fill-rule="evenodd">
        <path d="M8,10.34375 C8.64583656,10.34375 9.19791437,10.1145856 9.65625,9.65625 C10.1145856,9.19791437 10.34375,8.64583656 10.34375,8 C10.34375,7.35416344 10.1145856,6.80208563 9.65625,6.34375 C9.19791437,5.88541437 8.64583656,5.65625 8,5.65625 C7.35416344,5.65625 6.80208563,5.88541437 6.34375,6.34375 C5.88541437,6.80208563 5.65625,7.35416344 5.65625,8 C5.65625,8.64583656 5.88541437,9.19791437 6.34375,9.65625 C6.80208563,10.1145856 7.35416344,10.34375 8,10.34375 Z M12.96875,8.65625 L14.375,9.75 C14.5208341,9.85416719 14.5416672,9.99999906 14.4375,10.1875 L13.09375,12.5 C13.0104163,12.6458341 12.8750009,12.6875003 12.6875,12.625 L11.03125,11.96875 C10.5937478,12.2812516 10.2187516,12.4999994 9.90625,12.625 L9.65625,14.375 C9.61458313,14.5625009 9.5104175,14.65625 9.34375,14.65625 L6.65625,14.65625 C6.4895825,14.65625 6.38541688,14.5625009 6.34375,14.375 L6.09375,12.625 C5.69791469,12.4583325 5.32291844,12.2395847 4.96875,11.96875 L3.3125,12.625 C3.12499906,12.6875003 2.98958375,12.6458341 2.90625,12.5 L1.5625,10.1875 C1.45833281,9.99999906 1.47916594,9.85416719 1.625,9.75 L3.03125,8.65625 C3.01041656,8.51041594 3,8.29166813 3,8 C3,7.70833187 3.01041656,7.48958406 3.03125,7.34375 L1.625,6.25 C1.47916594,6.14583281 1.45833281,6.00000094 1.5625,5.8125 L2.90625,3.5 C2.98958375,3.35416594 3.12499906,3.31249969 3.3125,3.375 L4.96875,4.03125 C5.40625219,3.71874844 5.78124844,3.50000063 6.09375,3.375 L6.34375,1.625 C6.38541688,1.43749906 6.4895825,1.34375 6.65625,1.34375 L9.34375,1.34375 C9.5104175,1.34375 9.61458313,1.43749906 9.65625,1.625 L9.90625,3.375 C10.3020853,3.5416675 10.6770816,3.76041531 11.03125,4.03125 L12.6875,3.375 C12.8750009,3.31249969 13.0104163,3.35416594 13.09375,3.5 L14.4375,5.8125 C14.5416672,6.00000094 14.5208341,6.14583281 14.375,6.25 L12.96875,7.34375 C12.9895834,7.48958406 13,7.70833187 13,8 C13,8.29166813 12.9895834,8.51041594 12.96875,8.65625 Z" id="" fill="#444444"></path>
    </g>
</svg>