<?xml version="1.0" encoding="UTF-8"?>
<svg width="24px" height="27px" viewBox="0 0 24 27" version="1.1" xmlns="http://www.w3.org/2000/svg" xmlns:xlink="http://www.w3.org/1999/xlink">
    <!-- Generator: Sketch 51.3 (57544) - http://www.bohemiancoding.com/sketch -->
    <title>Icon-Cargo</title>
    <desc>Created with Sketch.</desc>
    <defs></defs>
    <g id="Icon-Cargo" stroke="none" stroke-width="1" fill="none" fill-rule="evenodd">
        <path d="M12.0632279,0.519781362 L7.85857512,2.75957823 C7.86464791,2.75668253 6.91824535,3.25487941 6.17644184,3.64551026 L4.76637302,4.39533844 L4.76441983,4.39166543 C4.69317813,4.43724738 4.65488057,4.4570437 4.51655853,4.52854348 C4.22602633,4.68302923 4.22602633,4.68302923 3.77015657,4.92524536 C3.11073309,5.27557608 2.12393959,5.79961411 0.850143438,6.47338818 L0.850143438,19.3763889 L11.9799497,25.8277936 C12.3012664,25.6422356 14.5813712,24.3202663 18.3047696,22.1608341 L23.056713,19.1289319 L23.1498617,15.0570472 L23.1109629,6.50708021 L23.116732,6.46339647 L12.0632279,0.519781362 Z M0.827325921,6.48578386 C0.80552737,6.50021084 0.796387313,6.50652819 0.84367693,6.46503499 C0.826296465,6.4828145 0.826130822,6.48271585 0.850143438,6.44325148 L0.850143438,6.44579904 C0.841973387,6.46067384 0.833926408,6.47462794 0.827325921,6.48578386 Z M0.818060971,6.50118786 C0.818055234,6.50119721 0.818049501,6.50120656 0.818043771,6.5012159 C0.818059045,6.50118947 0.818069227,6.50117185 0.819362369,6.49823252 Z M0.850143438,6.42818607 C0.851011013,6.42621158 0.851902069,6.42418365 0.852817243,6.42210083 C0.850939256,6.42762832 0.850320282,6.42907494 0.850143438,6.42692286 L0.850143438,6.42818607 Z M11.9930125,25.844108 C11.9930212,25.8441094 11.9930301,25.8441109 11.9930391,25.8441124 C11.9930292,25.8441111 11.9930174,25.8441101 11.9930037,25.8441092 Z M11.9008504,25.8668743 C11.9008464,25.8668757 11.9008424,25.8668771 11.9008383,25.8668785 C11.9032088,25.8659242 11.9054236,25.8650325 11.9074942,25.8641985 Z M23.1233824,6.4130394 L23.1286955,6.37280843 C23.1247742,6.38713547 23.1230275,6.40056402 23.1233824,6.4130394 Z M23.1769865,6.49579614 C23.1778706,6.49628336 23.1787652,6.49676439 23.1796703,6.49723922 L23.1769864,6.49579609 Z M12.1023992,0.49797196 C12.1027158,0.497963627 12.1030335,0.497955155 12.1033523,0.497946544 C12.1028901,0.497988567 12.1025033,0.498012806 12.1021881,0.498019466 Z M15.9671555,13.2765066 L18.9396661,11.5379646 L18.9502474,8.75747291 L23.3360143,6.22088031 L23.296194,19.2276374 L11.8694927,26.1683394 L11.8694927,12.8582223 L15.9033857,10.5169549 L15.9229213,11.3623007 L15.9671555,13.2765066 Z M12.05937,0.27065568 L23.4614562,6.40192103 L19.0871273,8.92852343 L7.57128715,2.66409158 L8.39036134,2.22727296 L11.8231097,0.396655158 L12.05937,0.27065568 Z M7.80141944,2.53903307 L19.314768,8.80009001 L15.9318299,10.7517473 L4.46626193,4.29858313 L5.28142724,3.87138597 L6.319255,3.32751067 L7.56398803,2.6653385 L7.80141944,2.53903307 Z M4.70143434,4.25246559 L4.83473379,4.2511308 L16.1698292,10.6179346 L11.9803784,13.0425438 L0.515413655,6.40888947 L1.31111053,5.98591321 L4.46191977,4.31094482 L4.57432444,4.25119278 L4.70143434,4.25246559 Z M0.627560885,6.22238422 L12.0913595,12.8579873 L12.0913595,26.1476312 L0.627560885,19.5011037 L0.627560885,6.22238422 Z M19.1754492,8.63595717 L19.1597617,11.6726005 L15.7479066,13.6541216 L15.6850936,10.6507835 L15.9412001,10.502946 L18.4209881,9.07146997 L19.1754492,8.63595717 Z M23.4943496,14.5550008 L23.5040636,15.0549064 L23.5089167,15.5548829 C23.3814883,15.5561198 23.2465183,15.5649217 23.0769558,15.5817527 L22.9781217,14.5866488 C23.1557615,14.568995 23.3270169,14.5582524 23.4943496,14.5550008 Z M23.5137775,15.5548121 C23.3742102,15.5575241 23.2292635,15.5666164 23.077014,15.5817469 L23.0275678,15.0841978 L22.9781799,14.586643 C23.1749037,14.5671159 23.3377296,14.5564975 23.4992104,14.55493 L23.5137775,15.5548121 Z" id="Shape" stroke="#8A9399"></path>
    </g>
</svg>