<?xml version="1.0" encoding="UTF-8"?>
<svg width="16px" height="16px" viewBox="0 0 16 16" version="1.1" xmlns="http://www.w3.org/2000/svg" xmlns:xlink="http://www.w3.org/1999/xlink">
    <!-- Generator: Sketch 51.3 (57544) - http://www.bohemiancoding.com/sketch -->
    <title>Icon-Invoice</title>
    <desc>Created with Sketch.</desc>
    <defs></defs>
    <g id="Icon-Invoice" stroke="none" stroke-width="1" fill="none" fill-rule="evenodd">
        <path d="M13.8421053,6.07518797 C13.8406973,5.97602659 13.8002885,5.88144002 13.7296802,5.81203008 L9.02656562,1.11278195 C8.95737533,1.04194952 8.86308808,1.00141242 8.76424051,1 L4.06112592,1 C2.92279751,1 2,1.92572702 2,3.06766917 L2,13.9323308 C2,15.074273 2.92279751,16 4.06112592,16 L11.7809793,16 C12.9193078,16 13.8421053,15.074273 13.8421053,13.9323308 L13.8421053,6.07518797 Z M9.17646569,2.31578947 L12.5304797,5.68045113 L10.6754664,5.68045113 C9.84759115,5.68045113 9.17646569,5.00719511 9.17646569,4.17669173 L9.17646569,2.31578947 Z M13.0926049,13.9323308 C13.0926049,14.6590213 12.5053702,15.2481203 11.7809793,15.2481203 L4.06112592,15.2481203 C3.33673511,15.2481203 2.74950033,14.6590213 2.74950033,13.9323308 L2.74950033,3.06766917 C2.74950033,2.34097871 3.33673511,1.7518797 4.06112592,1.7518797 L8.42696536,1.7518797 L8.42696536,4.17669173 C8.42696536,5.4224468 9.43365354,6.43233083 10.6754664,6.43233083 L13.0926049,6.43233083 L13.0926049,13.9323308 Z" id="Shape" fill="#444444" fill-rule="nonzero"></path>
    </g>
</svg>