<svg xmlns="http://www.w3.org/2000/svg" width="36" height="24">
    <g fill="none" fill-rule="evenodd">
        <path fill="#8A9399" fill-rule="nonzero" d="M25.92.79L1.54 8.283l7.983 3.845 24.376-7.533L25.92.789zm.199-.77l9.015 4.302a.39.39 0 0 1-.053.724L9.607 12.918l-.284-.02L.307 8.554a.39.39 0 0 1 .055-.723L25.836 0l.283.02z"/>
        <path fill="#8A9399" fill-rule="nonzero" d="M.866 8.824v10.391l8.236 3.801V12.791L.866 8.824zm-.22-.97l9.015 4.341a.39.39 0 0 1 .22.351v11.079a.39.39 0 0 1-.552.353l-9.016-4.16a.39.39 0 0 1-.226-.354V8.204c0-.287.3-.475.558-.35z"/>
        <path fill="#8A9399" fill-rule="nonzero" d="M9.881 12.833v10.254l24.696-8.098V5.202L9.88 12.833zm-.504-.659L34.85 4.302a.39.39 0 0 1 .505.372V15.27a.39.39 0 0 1-.268.37L9.613 23.995a.39.39 0 0 1-.51-.37V12.546a.39.39 0 0 1 .274-.372z"/>
        <path stroke="#8A9399" d="M13.566 12.65v-.25.25zm-.49.35a.366.366 0 0 0 .058.13c.025.031.025.031.044.05l-.04-.038-.02-.02-.02-.019.156-.16.096-.03v.325a.476.476 0 0 1-.213-.087.476.476 0 0 0 .216.055h-.225v-.223l.08-.025.07.225-.212.066v-.156-.039-.051l.01-.004zm.208.283l-.257-.25v-.018l.037-.012a.468.468 0 0 0 .224.235l.062.02v.025h-.066zm-.147-.132a.703.703 0 0 1-.078-.067.453.453 0 0 0 .076.06zm.216.055h.014-.017zm-2.335.683l-.058.018c.02-.008.044-.04.058-.07v.052zm0-.052c.01-.022.013-.044.006-.056a.213.213 0 0 0-.006-.02v.076zm0-.077c-.017-.046-.047-.072-.088-.08l.01-.004h.078v.084zm-.11-.083h-.01.017zm2.442 7.003v.002l.017-.003h-.017zm0 .2v.053l-.323.096a.502.502 0 0 1 .171-.363.414.414 0 0 0-.131.313v-.032-.039-.038-.121l.151-.047h.001a.468.468 0 0 0-.182.19c-.03.086-.042.12-.047.148l-.003.001v-.15l.151-.148.02-.02.02-.018.172.176zm-2.332.748l-.058.017c.02-.008.044-.04.058-.07v.053zm0-.053c.01-.022.013-.044.006-.056a.213.213 0 0 0-.006-.02v.076zm0-.076c-.017-.046-.047-.073-.087-.081l.01-.004h.077v.085zm-.11-.084h-.01.017zm2.769-9.115c.027.02.053.042.079.067a.453.453 0 0 0-.077-.06zm2.093.15c-.05 0-.119-.07-.119-.109v7.825c0-.06.051-.108.119-.108.07 0 .118.052.118.108v-7.825c0 .06-.051.109-.118.109zm2.709-.834c-.05 0-.119-.07-.119-.108v7.825c0-.06.052-.109.119-.109.07 0 .118.052.118.109v-7.825c0 .06-.051.108-.118.108zm2.709-.959c-.05 0-.119-.07-.119-.108v7.825c0-.06.052-.109.119-.109.07 0 .118.052.118.109v-7.825c0 .06-.051.108-.118.108zm2.709-.916c-.05 0-.119-.07-.119-.108v7.825c0-.06.052-.109.119-.109.07 0 .118.052.118.109V9.633c0 .06-.051.108-.118.108zm2.709-.839c-.05 0-.119-.07-.119-.109v7.826c0-.06.052-.109.119-.109.07 0 .118.052.118.109V8.793c0 .06-.051.11-.118.11zm2.709-.931c-.05 0-.119-.07-.119-.109v7.825c0-.059.052-.108.119-.108.07 0 .118.052.118.108V7.862c0 .06-.051.109-.118.109zM2.504 10.964c-.096 0-.11-.015-.11-.014l-.009 7.733c0-.061.052-.11.119-.11.07 0 .118.052.118.11v-7.829c0 .06-.052.11-.118.11zm2.177 1.197c-.076 0-.114-.039-.112-.03l-.007 7.748c0-.04.07-.11.119-.11.07 0 .118.052.118.11V12.05c0 .061-.052.11-.118.11zm2.387 1.14c-.069 0-.105-.034-.109-.056l-.01 7.778c0-.064.054-.114.12-.114.068 0 .118.053.118.114v-7.836a.116.116 0 0 1-.119.114zm26.604 1.239c-.024.006-.03-.003-.056-.04l.414-.281-.463.188c-.037-.091.007-.174.044-.188l-2.069.655v-.147h-.039V7.365l2.148-.646c-.045.008-.11-.028-.123-.062-.037-.092.007-.174.044-.188l-2.006.606-.024.008V7.05h-.345l-.076-.077v.077h-.079l.079.08v.343a.648.648 0 0 0 .09-.006v7.26h-.169c.06 0 .116.011.169.032v.121c.004 0 .01 0 .017.002h-.017v.291l-.13.131h.13v.027l.084-.027h.143l.037.116v-.116h.107a.651.651 0 0 0-.006-.09l2.096-.674h0zm-.021-7.821l.012-.004a.057.057 0 0 1-.012.004zm.021 7.821l.03-.01a.292.292 0 0 1-.03.01zm-2.438 1.342h.005-.004z"/>
    </g>
</svg>
