<?xml version="1.0" encoding="UTF-8"?>
<svg width="40px" height="27px" viewBox="0 0 40 27" version="1.1" xmlns="http://www.w3.org/2000/svg" xmlns:xlink="http://www.w3.org/1999/xlink">
    <!-- Generator: Sketch 51.3 (57544) - http://www.bohemiancoding.com/sketch -->
    <title>Icon-Container</title>
    <desc>Created with Sketch.</desc>
    <defs></defs>
    <g id="Icon-Container" stroke="none" stroke-width="1" fill="none" fill-rule="evenodd">
        <g id="Group" transform="translate(0.593750, 0.000000)">
            <path d="M27.9860324,0.854827221 L1.57468788,8.97479061 L10.2222748,13.1397348 L36.6296156,4.97893636 L27.9860324,0.854827221 Z M28.2009335,0.0224922274 L37.9675264,4.68242254 C38.3142271,4.84784368 38.2774352,5.35282368 37.9104186,5.46624474 L10.3130735,13.9947964 L10.0054496,13.9718175 L0.238856698,9.26792559 C-0.106826624,9.10143386 -0.0688032927,8.59734352 0.29794338,8.4845901 L27.8952885,0 L28.2009335,0.0224922274 Z" id="Shape" fill="#8A9399" fill-rule="nonzero"></path>
            <path d="M0.843793733,9.5592819 L0.843793733,20.8164642 L9.76663665,24.9339464 L9.76663665,13.8567978 L0.843793733,9.5592819 Z M0.604980768,8.50774981 L10.3715737,13.2116417 C10.5175693,13.2819577 10.6103867,13.4296831 10.6103867,13.5917296 L10.6103867,25.5932483 C10.6103867,25.901116 10.2912885,26.105301 10.0117481,25.9763059 L0.245155215,21.4694719 C0.0957335647,21.4005206 4.37328558e-05,21.2509776 4.37328558e-05,21.0864142 L4.37328558e-05,8.8878377 C4.37328558e-05,8.57694657 0.324883687,8.37284643 0.604980768,8.50774981 Z" id="Path" fill="#8A9399" fill-rule="nonzero"></path>
            <path d="M10.6103867,13.9029162 L10.6103867,25.0109359 L37.3639818,16.2382512 L37.3639818,5.63511297 L10.6103867,13.9029162 Z M10.0639498,13.1886628 L37.6612949,4.66011109 C37.9326871,4.57624137 38.2077318,4.77912192 38.2077318,5.06317791 L38.2077318,16.5438922 C38.2077318,16.72624 38.0905762,16.8879493 37.9173059,16.9447658 L10.3199608,25.9941218 C10.0471659,26.0835731 9.76663665,25.8803347 9.76663665,25.5932483 L9.76663665,13.5917296 C9.76663665,13.4067156 9.88718412,13.2432896 10.0639498,13.1886628 Z" id="Path" fill="#8A9399" fill-rule="nonzero"></path>
            <path d="M14.1234143,14.1102671 C14.1350029,14.1442708 14.1507787,14.1732837 14.168936,14.1997423 C14.1918947,14.2300181 14.1918947,14.2300181 14.2112251,14.2492647 L14.1680792,14.20735 C14.1626859,14.2021106 14.1626859,14.2021106 14.1465062,14.1863926 C14.1303265,14.1706746 14.1303265,14.1706746 14.1249332,14.1654353 L14.2221626,14.0653497 L14.2774517,14.2420803 L14.1027703,14.2966456 L14.1027703,14.184034 C14.1027703,14.1567556 14.1027703,14.1472302 14.1027703,14.143904 L14.0817354,14.1234702 L14.1234143,14.1102671 Z M14.3135983,14.3487164 L14.1027703,14.1439048 C14.1027703,14.1421193 14.1027703,14.1421193 14.1027703,14.1421193 C14.1027703,14.1175952 14.1027703,14.0987399 14.1027703,14.0838061 C14.1479183,14.1798844 14.2253081,14.2579096 14.3195931,14.3037068 C14.3218134,14.3044598 14.3239964,14.3052002 14.326143,14.3059281 L14.326143,14.3487164 L14.3135983,14.3487164 Z M14.326143,14.2897599 C14.2266153,14.2645178 14.1520456,14.2127295 14.0817967,14.1444871 C14.1480859,14.2088815 14.23608,14.2610781 14.3719141,14.2646877 C14.3572334,14.264887 14.3423828,14.264887 14.3007485,14.264887 C14.2737823,14.264887 14.2737823,14.264887 14.2576026,14.264887 C14.2414228,14.264887 14.2414228,14.264887 14.2144566,14.264887 C14.1713107,14.264887 14.1713107,14.264887 14.1713107,14.264887 C14.1659174,14.264887 14.1659174,14.264887 14.1497377,14.264887 C14.1335579,14.264887 14.1335579,14.264887 14.1281647,14.264887 L14.1281647,14.1087623 L14.326143,14.0460465 L14.326143,14.2897599 Z M14.0817967,14.1444871 C14.0817936,14.1444841 14.0817904,14.144481 14.0817873,14.1444779 C14.0817904,14.144481 14.0817936,14.1444841 14.0817967,14.1444871 Z M14.3719141,14.2646877 C14.3768916,14.26482 14.3819333,14.264887 14.3870405,14.264887 C14.3793456,14.264887 14.3743954,14.264887 14.3682738,14.264887 Z M11.8414287,15.0030217 L11.7636531,15.0273165 C11.7816872,15.0203087 11.8184995,14.9527586 11.8079001,14.9396309 C11.7967807,14.8964223 11.7771887,14.872486 11.7478545,14.8628002 L11.7641263,14.8576456 C11.7677395,14.8576456 11.7718614,14.8576456 11.7767097,14.8576456 C11.8090692,14.8576456 11.8090692,14.8576456 11.8414287,14.8576456 L11.8414287,15.0030217 Z M11.7226384,14.858022 C11.71919,14.8577694 11.7156412,14.8576456 11.7119908,14.8576456 C11.7197175,14.8576456 11.7255992,14.8576456 11.7305171,14.8576456 Z M14.326143,22.4476114 L14.326143,22.4535096 L14.3870405,22.4442062 C14.3656203,22.4442062 14.3453528,22.4453853 14.326143,22.4476114 Z M14.326143,22.5781221 L14.326143,22.6459744 L14.06616,22.7236863 C14.085609,22.5907267 14.1471354,22.5011344 14.2327878,22.4179239 C14.161726,22.4869613 14.1045952,22.5787442 14.1028131,22.7274497 C14.1027703,22.7079043 14.1027703,22.7055452 14.1027703,22.692718 C14.1027703,22.677 14.1027703,22.677 14.1027703,22.6508033 C14.1027703,22.6246066 14.1027703,22.6246066 14.1027703,22.6088886 C14.1027703,22.5931706 14.1027703,22.5931706 14.1027703,22.5669739 L14.1027703,22.5092416 L14.2377534,22.4670129 L14.2419504,22.4663718 C14.167771,22.5104977 14.1063868,22.5750488 14.0665139,22.6525188 C14.0544314,22.6862084 14.0452878,22.7117034 14.038363,22.7319952 L14.0164784,22.7385367 L14.0164784,22.6490178 L14.1680792,22.5017432 C14.1734724,22.4965039 14.1734724,22.4965039 14.1896522,22.4807859 C14.2058319,22.4650679 14.2058319,22.4650679 14.2112251,22.4598285 L14.326143,22.5781221 Z M11.8414287,23.3870674 L11.7636531,23.4102563 C11.7816872,23.4032485 11.8184995,23.3356985 11.8079001,23.3225708 C11.7968243,23.2795318 11.7773425,23.2556141 11.7481996,23.2458548 L11.7650431,23.2405855 C11.7861546,23.2405855 11.8014334,23.2405855 11.8414287,23.2405855 L11.8414287,23.3870674 Z M11.7282425,23.2414969 C11.7230665,23.2408831 11.7176508,23.2405855 11.7119908,23.2405855 C11.7220262,23.2405855 11.7305055,23.2405855 11.7379112,23.2405855 Z M14.4729058,22.4022916 C14.473048,22.4022915 14.4731902,22.4022915 14.4733324,22.4022915 C14.4731902,22.4022915 14.4730481,22.4022915 14.472906,22.4022917 Z M14.2327878,22.4179239 C14.2327912,22.4179205 14.2327947,22.4179172 14.2327981,22.4179138 C14.2327947,22.4179172 14.2327912,22.4179205 14.2327878,22.4179239 Z M14.1028131,22.7274497 C14.1027846,22.7298294 14.1027703,22.7322237 14.1027703,22.7346327 C14.1027703,22.7298147 14.1027703,22.7258829 14.1027703,22.7225763 Z M14.9296068,23.1351709 C14.9296034,23.1351742 14.9295999,23.1351776 14.9295965,23.1351809 C14.9295999,23.1351776 14.9296034,23.1351742 14.9296068,23.1351709 Z M14.7785761,13.4272016 C14.7785793,13.4272047 14.7785824,13.4272078 14.7785856,13.4272108 C14.7785824,13.4272078 14.7785793,13.4272047 14.7785761,13.4272016 Z" id="Shape" stroke="#8A9399"></path>
            <path d="M16.9893781,13.4456024 C16.9583196,13.4456024 16.9026434,13.3884974 16.9026434,13.3694735 L16.9026434,21.8468951 C16.9026434,21.8059457 16.9393927,21.7707662 16.9893781,21.7707662 C17.0424121,21.7707662 17.0761128,21.8078008 17.0761128,21.8468951 L17.0761128,13.3694735 C17.0761128,13.4104229 17.0393636,13.4456024 16.9893781,13.4456024 Z" id="Shape" stroke="#8A9399"></path>
            <path d="M19.9241694,12.542757 C19.8931109,12.542757 19.8374347,12.485652 19.8374347,12.4666281 L19.8374347,20.9440497 C19.8374347,20.9031003 19.8741839,20.8679208 19.9241694,20.8679208 C19.9772034,20.8679208 20.0109041,20.9049554 20.0109041,20.9440497 L20.0109041,12.4666281 C20.0109041,12.5075775 19.9741548,12.542757 19.9241694,12.542757 Z" id="Shape-Copy-2" stroke="#8A9399"></path>
            <path d="M22.8589606,11.5038488 C22.8279021,11.5038488 22.7722259,11.4467438 22.7722259,11.4277199 L22.7722259,19.9051415 C22.7722259,19.8641921 22.8089751,19.8290126 22.8589606,19.8290126 C22.9119946,19.8290126 22.9456953,19.8660472 22.9456953,19.9051415 L22.9456953,11.4277199 C22.9456953,11.4686693 22.9089461,11.5038488 22.8589606,11.5038488 Z" id="Shape-Copy-3" stroke="#8A9399"></path>
            <path d="M25.7937518,10.5114779 C25.7626933,10.5114779 25.7070171,10.4543729 25.7070171,10.435349 L25.7070171,18.9127706 C25.7070171,18.8718212 25.7437664,18.8366417 25.7937518,18.8366417 C25.8467858,18.8366417 25.8804865,18.8736763 25.8804865,18.9127706 L25.8804865,10.435349 C25.8804865,10.4762984 25.8437373,10.5114779 25.7937518,10.5114779 Z" id="Shape-Copy-4" stroke="#8A9399"></path>
            <path d="M28.7285431,9.60230512 C28.6974846,9.60230512 28.6418084,9.54520009 28.6418084,9.5261762 L28.6418084,18.0035979 C28.6418084,17.9626485 28.6785576,17.9274689 28.7285431,17.9274689 C28.7815771,17.9274689 28.8152778,17.9645035 28.8152778,18.0035979 L28.8152778,9.5261762 C28.8152778,9.5671256 28.7785285,9.60230512 28.7285431,9.60230512 Z" id="Shape-Copy-5" stroke="#8A9399"></path>
            <path d="M31.6633343,8.59348642 C31.6322758,8.59348642 31.5765996,8.53638139 31.5765996,8.5173575 L31.5765996,16.9947792 C31.5765996,16.9538298 31.6133489,16.9186502 31.6633343,16.9186502 C31.7163683,16.9186502 31.750069,16.9556848 31.750069,16.9947792 L31.750069,8.5173575 C31.750069,8.5583069 31.7133198,8.59348642 31.6633343,8.59348642 Z" id="Shape-Copy" stroke="#8A9399"></path>
            <path d="M2.6180764,11.8365155 C2.53735965,11.8365155 2.53706423,11.8361923 2.54066665,11.854583 L2.53134171,20.2397262 C2.53134171,20.1971577 2.56857163,20.1616793 2.6180764,20.1616793 C2.67055576,20.1616793 2.70481109,20.199153 2.70481109,20.2397262 L2.70481109,11.7584686 C2.70481109,11.8010371 2.66758117,11.8365155 2.6180764,11.8365155 Z" id="Shape" stroke="#8A9399"></path>
            <path d="M4.97648605,13.1325673 C4.91668158,13.1325673 4.89171214,13.1070729 4.89628254,13.1350718 L4.88975136,21.535778 C4.88975136,21.515109 4.94594782,21.4577311 4.97648605,21.4577311 C5.02896541,21.4577311 5.06322074,21.4952048 5.06322074,21.535778 L5.06322074,13.0545204 C5.06322074,13.0970889 5.02599082,13.1325673 4.97648605,13.1325673 Z" id="Shape" stroke="#8A9399"></path>
            <path d="M7.56285037,14.3677655 C7.50932322,14.3677655 7.48667615,14.3464865 7.48560537,14.3410691 L7.47611568,22.7747605 C7.47611568,22.7289835 7.5142922,22.6929293 7.56285037,22.6929293 C7.61423421,22.6929293 7.64958506,22.7312546 7.64958506,22.7747605 L7.64958506,14.2859342 C7.64958506,14.3317113 7.61140854,14.3677655 7.56285037,14.3677655 Z" id="Shape" stroke="#8A9399"></path>
            <path d="M36.3738469,15.7110479 C36.3713447,15.7078891 36.3682033,15.6997464 36.357594,15.6840602 L36.7717595,15.4039407 L36.3084549,15.5919534 C36.2777164,15.5162071 36.3130969,15.4503336 36.3328212,15.4425568 L34.0349083,16.170842 L34.0349083,15.995436 L33.9923182,15.995436 L33.9923182,7.94738796 L36.3541315,7.23714747 C36.3241473,7.24225923 36.2734477,7.21452206 36.2658647,7.19583599 C36.2351262,7.12008961 36.2705068,7.05421616 36.2902311,7.04643936 L34.113824,7.70480179 L34.0285888,7.73065263 C34.0327403,7.70177367 34.0349083,7.6708596 34.0349083,7.63753205 L33.7028481,7.63753205 L33.6200886,7.55357088 L33.6200886,7.63753205 L33.5349083,7.63753205 L33.6200886,7.72394917 L33.6200886,8.05357088 C33.6716604,8.05357088 33.7174699,8.04834494 33.7589408,8.03859065 L33.7589408,15.995436 L33.5349083,15.995436 C33.6156094,15.995436 33.6922643,16.0171026 33.7589408,16.0550209 L33.7589408,16.1634177 C33.7553057,16.163378 33.7516128,16.1633583 33.7478591,16.1633583 L33.7323063,16.1633583 C33.7399308,16.1642897 33.7489176,16.1657068 33.7589408,16.1676807 L33.7589408,16.3953202 L33.5774985,16.5793971 L33.9634229,16.5793971 L34.0034,16.7053389 L34.0034,16.5793971 L34.0774985,16.5793971 C34.0774985,16.532967 34.0732906,16.4912211 34.0653742,16.4531363 L36.3710885,15.7120338 L36.3738469,15.7110479 Z M36.3738469,15.7110479 L36.4014851,15.7011693 C36.3797575,15.7097359 36.3774733,15.7156256 36.3738469,15.7110479 Z M33.6369973,17.1549329 C33.6224293,17.1482939 33.6071478,17.1409405 33.5907087,17.1328386 C33.60465,17.1397095 33.6172887,17.1454998 33.6315663,17.1501277 Z M33.1626078,7.32342956 C33.162611,7.32342644 33.1626141,7.32342332 33.1626173,7.32342019 C33.1626141,7.32342332 33.162611,7.32342644 33.1626078,7.32342956 Z" id="Shape" stroke="#8A9399"></path>
        </g>
    </g>
</svg>