<?xml version="1.0" encoding="UTF-8"?>
<svg width="16px" height="16px" viewBox="0 0 16 16" version="1.1" xmlns="http://www.w3.org/2000/svg" xmlns:xlink="http://www.w3.org/1999/xlink">
    <!-- Generator: Sketch 51.3 (57544) - http://www.bohemiancoding.com/sketch -->
    <title>Icon-Star-Inactive</title>
    <desc>Created with Sketch.</desc>
    <defs></defs>
    <g id="Icon-Star-Inactive" stroke="none" stroke-width="1" fill="none" fill-rule="evenodd">
        <path d="M8.0000907,11.9408296 L8.2326061,12.0629603 L12.2130018,14.1536962 L11.4085401,9.4671723 L11.5969822,9.28364388 L14.8159834,6.14857932 L10.1067294,5.46487901 L9.99034182,5.22927103 L8.00017904,1.20050403 L5.89345967,5.46488047 L5.6334088,5.50263525 L1.18408739,6.14859786 L4.5918398,9.46716454 L4.54732417,9.72644354 L3.78717984,14.1538639 L8.0000907,11.9408296 Z M3.96554321,15.1897437 C3.84455478,15.2530791 3.71057048,15.2857143 3.57516995,15.2857143 C3.39848773,15.2857143 3.22560768,15.2301014 3.08167611,15.1255602 C2.82252738,14.9376861 2.69258746,14.6187233 2.74685923,14.3034879 L3.51722923,9.81650831 L0.254048537,6.63872969 C0.0247927581,6.41557347 -0.0577076923,6.08153987 0.0411356058,5.77730604 C0.13997256,5.47309174 0.40301511,5.2516927 0.719749305,5.20552761 L5.22968197,4.55076524 L7.24631246,0.468745702 C7.38770226,0.181609061 7.68017345,0 8.00009952,0 C8.31974387,0 8.61165455,0.181261042 8.7537765,0.468177546 L10.7705271,4.5507667 L15.2801776,5.20548819 C15.596832,5.25128305 15.8600381,5.473036 15.9588931,5.77730604 C16.0577364,6.08153987 15.975236,6.41557347 15.7460778,6.63863469 L12.4831294,9.81650057 L13.2534105,14.3039009 C13.3072358,14.6189864 13.1774668,14.9375295 12.9189507,15.1252497 C12.660138,15.3132981 12.3169643,15.3379298 12.0340394,15.1892505 L8.00010831,13.0703947 L3.96554321,15.1897437 Z" id="Shape-Copy-Copy" fill="#444444" fill-rule="nonzero"></path>
    </g>
</svg>