<?xml version="1.0" encoding="UTF-8"?>
<svg width="16px" height="16px" viewBox="0 0 16 16" version="1.1" xmlns="http://www.w3.org/2000/svg" xmlns:xlink="http://www.w3.org/1999/xlink">
    <!-- Generator: Sketch 51.3 (57544) - http://www.bohemiancoding.com/sketch -->
    <title>Icon-Sort-Down</title>
    <desc>Created with Sketch.</desc>
    <defs></defs>
    <g id="Icon-Sort-Down" stroke="none" stroke-width="1" fill="none" fill-rule="evenodd">
        <path d="M13.0609073,8.28284271 L8.28284271,13.0609073 C8.126633,13.217117 7.873367,13.217117 7.71715729,13.0609073 L2.94376748,8.28751748 C2.78755777,8.13130777 2.78755777,7.87804177 2.94376748,7.72183206 C2.94531294,7.7202866 2.94687104,7.71875383 2.94844162,7.71723391 L3.34223267,7.33614581 C3.49914493,7.18429523 3.74884178,7.18634178 3.90324395,7.34074395 L7.00232864,10.4398286 C7.0804335,10.5179335 7.2070665,10.5179335 7.28517136,10.4398286 C7.32267863,10.4023214 7.34375,10.3514506 7.34375,10.2984073 L7.34375,3.05625 C7.34375,2.8353361 7.5228361,2.65625 7.74375,2.65625 L8.25625,2.65625 C8.4771639,2.65625 8.65625,2.8353361 8.65625,3.05625 L8.65625,10.30125 C8.65625,10.4117069 8.74579305,10.50125 8.85625,10.50125 C8.90900338,10.50125 8.95962038,10.4804077 8.9970784,10.4432618 L12.1234122,7.34298079 C12.2798103,7.18788606 12.532164,7.18841399 12.6879117,7.34416175 L13.0609073,7.71715729 C13.217117,7.873367 13.217117,8.126633 13.0609073,8.28284271 Z" id="" fill="#444444"></path>
    </g>
</svg>