<?xml version="1.0" encoding="UTF-8"?>
<svg width="40px" height="20px" viewBox="0 0 40 20" version="1.1" xmlns="http://www.w3.org/2000/svg" xmlns:xlink="http://www.w3.org/1999/xlink">
    <!-- Generator: Sketch 51.3 (57544) - http://www.bohemiancoding.com/sketch -->
    <title>Icon-Truck</title>
    <desc>Created with Sketch.</desc>
    <defs></defs>
    <g id="Icon-Truck" stroke="none" stroke-width="1" fill="none" fill-rule="evenodd">
        <path d="M12.334861,0.485121753 C12.365959,0.706249808 12.5956156,0.879144029 12.8168681,0.848015889 L15.8801956,0.848015889 L17.0553513,4.76739082 C17.1066462,4.94229549 17.2823164,5.07256063 17.4646753,5.07091341 L38.5910713,5.07091341 L38.5910713,11.9737611 L36.0559038,11.9737611 L36.0559038,6.33778225 L35.2108479,6.33778225 L35.2108479,11.9737611 L32.6756804,11.9737611 L32.6756804,6.33778225 L31.8306246,6.33778225 L31.8306246,11.9737611 L29.295457,11.9737611 L29.295457,6.33778225 L28.4504012,6.33778225 L28.4504012,11.9737611 L25.9152337,11.9737611 L25.9152337,6.33778225 L25.0701778,6.33778225 L25.0701778,11.9737611 L22.5350103,11.9737611 L22.5350103,6.33778225 L21.6899545,6.33778225 L21.6899545,11.9737611 L19.1547869,11.9737611 L19.1547869,6.33778225 L18.3097311,6.33778225 L18.3097311,11.9737611 L15.8273796,11.9737611 L15.7877887,2.52397691 C15.7877676,2.30287842 15.586488,2.10171123 15.3652608,2.10169011 C11.8152699,2.10169011 8.25463559,2.10169011 4.70967704,2.10169011 C4.62509962,2.11723306 4.54560099,2.15927928 4.48520908,2.22045853 C1.41429292,5.29902313 0.563630138,9.59867242 0.563621687,11.8407432 C0.563625912,14.0959917 0.563621687,15.6321253 0.563621687,17.304133 C0.563642814,17.52524 0.764922439,17.7263691 0.986149608,17.7264114 C2.13387065,17.7264114 5.44578405,17.7264114 7.44290452,17.7264114 C7.80567855,18.9488983 8.94376595,19.8510653 10.281764,19.8510653 C11.6151734,19.8510653 12.7538185,18.9556984 13.1206235,17.7395891 C17.7130541,17.7395891 20.4373282,17.7392512 25.1890772,17.7395891 C25.5558821,18.9556984 26.6945273,19.8510653 28.0279367,19.8510653 C29.3659347,19.8510653 30.5040221,18.9488983 30.8667961,17.7264114 C31.5124695,17.7261157 32.205635,17.7268337 32.7945798,17.7264114 C33.1573538,18.9488983 34.2954412,19.8510653 35.6334392,19.8510653 C36.9714373,19.8510653 38.1095247,18.9488983 38.4722987,17.7264114 C38.5756828,17.7261157 38.9173643,17.726707 39.0136626,17.7264114 C39.2348898,17.7263691 39.4361694,17.52524 39.4361905,17.304133 C39.4366131,13.0858688 39.4361905,8.86974177 39.4361905,4.64864351 C39.4361694,4.4275408 39.2348898,4.22637784 39.0136626,4.22635672 L17.7816346,4.22635672 L16.6064788,0.293782947 C16.5505192,0.123676321 16.3762264,6.33940174e-05 16.1970915,0.00343807296 L12.8168681,0.00343807296 C12.8168681,-0.00973964707 12.3943402,-0.00973964707 12.334861,0.485121753 Z M14.9427117,2.94626793 L14.9823026,12.3960395 C14.9823237,12.6171464 15.1836034,12.8183178 15.4048305,12.8183601 L38.5910502,12.8183601 L38.5910502,16.8818124 C38.5838672,15.2603193 37.2574253,13.9389995 35.6333547,13.9389995 C34.0092842,13.9389995 32.6828423,15.2603193 32.6756593,16.8818124 C32.1608259,16.8818124 31.5430183,16.881559 30.9855476,16.8818124 C30.9783646,15.2603193 29.6519227,13.9389995 28.0278522,13.9389995 C26.3993662,13.9389995 25.0701567,15.2674573 25.0701567,16.8950324 C20.4588687,16.8947367 17.7019162,16.8950324 13.2393749,16.8950324 C13.2393749,15.2674573 11.9101655,13.9389995 10.2816795,13.9389995 C8.65760892,13.9389995 7.33116701,15.2603193 7.32398404,16.8818124 C5.52157711,16.8818124 2.52101608,16.8818969 1.40859302,16.8818124 C1.40859302,15.3539572 1.40859725,13.9216826 1.40859302,11.8407432 C1.40860147,9.8509075 2.23999699,5.79294688 4.98687648,2.94626793 L14.9427117,2.94626793 Z M6.39972534,4.64862239 C6.35315431,4.65863239 6.30830297,4.67654058 6.26768536,4.7014093 C5.09059441,5.40726627 4.30641639,6.67356492 3.81174183,8.21169205 C3.31706726,9.74983608 3.09872583,11.5851292 3.09872583,13.5167211 C3.09874696,13.7378281 3.30002671,13.9389572 3.52125388,13.9389995 L7.32400517,13.9389995 C7.51318359,13.9389995 7.69193403,13.79358 7.73332909,13.6090919 C7.90440642,12.9251598 8.56330068,12.1433662 9.50266476,11.550411 C10.4420288,10.9574559 11.6431785,10.5606882 12.8168681,10.5606882 C13.0380953,10.560646 13.2393749,10.3594746 13.2393961,10.1384099 L13.2393961,5.07091341 C13.2393749,4.8498107 13.0380953,4.64864351 12.8168681,4.64862239 C10.6805205,4.64862239 8.52991253,4.64862239 6.39972534,4.64862239 Z M6.6241933,5.49320443 L12.3943402,5.49320443 L12.3943402,9.7821046 C11.1846174,9.86463429 10.0081772,10.2353421 9.05372884,10.8378005 C8.10580435,11.4361619 7.41910353,12.2245443 7.08633321,13.0944006 L3.9701898,13.0944006 C4.00082307,11.389533 4.18374386,9.76909582 4.60398168,8.46242774 C5.04753459,7.0832653 5.72700596,6.06535401 6.6241933,5.49320443 Z M10.2817006,14.7835984 C11.4534846,14.7835984 12.3943402,15.7239048 12.3943402,16.8950324 C12.3943402,18.06616 11.4534846,19.0064664 10.2817006,19.0064664 C9.10991661,19.0064664 8.16906101,18.06616 8.16906101,16.8950324 C8.16906101,15.6149774 9.01411685,14.7703785 10.2817006,14.7835984 Z M28.0278733,14.7835984 C29.1996573,14.7835984 30.1405129,15.7239048 30.1405129,16.8950324 C30.1405129,18.06616 29.1996573,19.0064664 28.0278733,19.0064664 C26.8560893,19.0064664 25.9152337,18.06616 25.9152337,16.8950324 C25.9152337,15.6149774 26.7602895,14.7703785 28.0278733,14.7835984 Z M35.6333759,14.7835984 C36.8051599,14.7835984 37.7460155,15.7239048 37.7460155,16.8950324 C37.7460155,18.06616 36.8051599,19.0064664 35.6333759,19.0064664 C34.4615918,19.0064664 33.5207363,18.06616 33.5207363,16.8950324 C33.5207363,15.6149774 34.3657921,14.7703785 35.6333759,14.7835984 Z M28.0278733,16.166504 C27.6253325,16.166504 27.2990091,16.4926526 27.2990091,16.8949741 C27.2990091,17.2972957 27.6253325,17.6234078 28.0278733,17.6234078 C28.430414,17.6234078 28.7567375,17.2972957 28.7567375,16.8949741 C28.7567375,16.4926526 28.430414,16.166504 28.0278733,16.166504 Z M10.2817006,16.166504 C9.87915985,16.166504 9.55283643,16.4926526 9.55283643,16.8949741 C9.55283643,17.2972957 9.87915985,17.6234078 10.2817006,17.6234078 C10.6842414,17.6234078 11.0105648,17.2972957 11.0105648,16.8949741 C11.0105648,16.4926526 10.6842414,16.166504 10.2817006,16.166504 Z M35.6333759,16.166504 C35.2308351,16.166504 34.9045117,16.4926526 34.9045117,16.8949741 C34.9045117,17.2972957 35.2308351,17.6234078 35.6333759,17.6234078 C36.0359166,17.6234078 36.36224,17.2972957 36.36224,16.8949741 C36.36224,16.4926526 36.0359166,16.166504 35.6333759,16.166504 Z" id="Shape" fill="#8A9399" transform="translate(20.000000, 9.925533) scale(-1, 1) translate(-20.000000, -9.925533) "></path>
    </g>
</svg>