<?xml version="1.0" encoding="UTF-8"?>
<svg width="16px" height="16px" viewBox="0 0 16 16" version="1.1" xmlns="http://www.w3.org/2000/svg" xmlns:xlink="http://www.w3.org/1999/xlink">
    <!-- Generator: Sketch 51.3 (57544) - http://www.bohemiancoding.com/sketch -->
    <title>Icon-Sort-Up</title>
    <desc>Created with Sketch.</desc>
    <defs></defs>
    <g id="Icon-Sort-Up" stroke="none" stroke-width="1" fill="none" fill-rule="evenodd">
        <path d="M2.93909271,7.71715729 L7.71715729,2.93909271 C7.873367,2.782883 8.126633,2.782883 8.28284271,2.93909271 L13.0562325,7.71248252 C13.2124422,7.86869223 13.2124422,8.12195823 13.0562325,8.27816794 C13.0546871,8.2797134 13.053129,8.28124617 13.0515584,8.28276609 L12.6577673,8.66385419 C12.5008551,8.81570477 12.2511582,8.81365822 12.096756,8.65925605 L8.99767136,5.56017136 C8.9195665,5.4820665 8.7929335,5.4820665 8.71482864,5.56017136 C8.67732137,5.59767863 8.65625,5.64854941 8.65625,5.70159271 L8.65625,12.94375 C8.65625,13.1646639 8.4771639,13.34375 8.25625,13.34375 L7.74375,13.34375 C7.5228361,13.34375 7.34375,13.1646639 7.34375,12.94375 L7.34375,5.69875 C7.34375,5.58829305 7.25420695,5.49875 7.14375,5.49875 C7.09099662,5.49875 7.04037962,5.51959229 7.0029216,5.55673817 L3.87658777,8.65701921 C3.72018972,8.81211394 3.46783601,8.81158601 3.31208825,8.65583825 L2.93909271,8.28284271 C2.782883,8.126633 2.782883,7.873367 2.93909271,7.71715729 Z" id="" fill="#444444"></path>
    </g>
</svg>