<?xml version="1.0" encoding="UTF-8"?>
<svg width="16px" height="16px" viewBox="0 0 16 16" version="1.1" xmlns="http://www.w3.org/2000/svg" xmlns:xlink="http://www.w3.org/1999/xlink">
    <!-- Generator: Sketch 51.3 (57544) - http://www.bohemiancoding.com/sketch -->
    <title>Icon-Hold</title>
    <desc>Created with Sketch.</desc>
    <defs></defs>
    <g id="Icon-Hold" stroke="none" stroke-width="1" fill="none" fill-rule="evenodd">
        <path d="M6.66694677,0.00133613468 C6.0943292,0.00133613468 5.60869964,0.404096439 5.47832474,0.93995715 C5.31657916,0.860329324 5.13526484,0.815419245 4.94421972,0.815419245 C4.33769611,0.815419245 3.82853408,1.26858101 3.73733235,1.85319161 C3.58067536,1.77968969 3.40648506,1.73828584 3.223296,1.73828584 C2.55210272,1.73828584 2,2.29069685 2,2.962129 L2,7.94634102 C2,7.9464498 2,7.94634102 2,7.94634102 C2,7.94634102 2,7.94634102 2,7.94634102 C2.00364236,9.30502864 2.04165516,10.5550669 2.05790292,11.9995971 C2.05790292,11.9997059 2.05790292,11.9995971 2.05790292,11.9995971 C2.06986556,13.1464974 2.55885179,14.091364 3.29587529,14.7521615 C4.03300592,15.4130133 5.00799665,15.8026679 6.02510659,15.9183152 C8.05932645,16.1496278 10.3300137,15.2592762 11.146687,13.0497772 C11.146687,13.0497591 11.146687,13.049741 11.146687,13.0497228 C11.5651115,11.9169997 11.534705,11.385519 11.6491892,11.0105493 C11.7636735,10.6355613 12.0340826,10.2361894 13.185317,9.16436284 C13.185317,9.16432658 13.1854955,9.16429033 13.1854955,9.16425407 C13.7462933,8.64149364 13.9594068,7.94380291 13.6239708,7.43335414 C13.4562618,7.17813066 13.1595705,7.01895115 12.8262771,6.98614061 C12.4929837,6.95333189 12.1164999,7.02975807 11.6946472,7.21872776 C11.6944508,7.21880028 11.6943259,7.21887279 11.694183,7.21890905 C11.3046474,7.39404966 10.7409929,7.72104732 10.2034776,8.13780531 C9.99780949,8.29728939 9.79573018,8.467778 9.6111306,8.65012322 L9.6111306,2.96078561 C9.6111306,2.28935346 9.05901021,1.73694245 8.38783478,1.73694245 C8.21098413,1.73694245 8.04254304,1.77572843 7.89018903,1.84471069 L7.89018903,1.22564885 C7.89018903,0.553167009 7.33808649,0 6.6668932,0 L6.66694677,0.00133613468 Z M6.66694677,0.72657626 C6.9439979,0.72657626 7.1664137,0.949417056 7.1664137,1.22699224 C7.1664137,3.23999425 7.1664137,4.94333572 7.1664137,6.75151029 C7.1664137,7.24089817 7.89024259,7.21165368 7.89024259,6.75151029 C7.89024259,5.48838259 7.89024259,4.2252567 7.89024259,2.962129 C7.89024259,2.68712456 8.11340829,2.46352596 8.38788834,2.46352596 C8.66492162,2.46352596 8.88733742,2.68712456 8.88733742,2.962129 L8.88733742,9.73560121 C8.88733742,10.0699612 9.43078044,10.1664639 9.59365087,9.88380882 C9.7473797,9.53019543 10.1696608,9.08241808 10.6465416,8.71266955 C11.133046,8.33545172 11.6738644,8.02438796 11.9901244,7.88214491 C11.990303,7.8820724 11.9904279,7.88198175 11.9905708,7.88196362 C12.3294348,7.73023891 12.5904703,7.69296492 12.7555369,7.70920884 C12.920657,7.72552527 12.9831305,7.7781911 13.0194469,7.83346755 C13.0920619,7.9439842 13.0925619,8.26159266 12.6926348,8.63445944 C12.6926348,8.63451383 12.6924563,8.63453196 12.6924563,8.63456822 C11.5166539,9.72929219 11.1248507,10.2500765 10.9570524,10.7997591 C10.7892362,11.3494416 10.8565127,11.7471819 10.4678876,12.7992112 C10.4678876,12.7992293 10.4678876,12.7992474 10.4678876,12.7992656 C9.7807501,14.6583238 7.87938694,15.400631 6.10668464,15.1990686 C5.22032456,15.0982693 4.38317199,14.7550984 3.77854097,14.2130121 C3.17389209,13.6709439 2.79149832,12.9429046 2.78167825,11.9931068 C2.78167825,11.992998 2.78167825,11.9931068 2.78167825,11.9931068 C2.76534121,10.540781 2.72745357,9.29271879 2.72382907,7.94672174 C2.72382907,7.94672174 2.72382907,7.94672174 2.72382907,7.94672174 L2.72382907,2.96346695 C2.72382907,2.68846251 2.94622701,2.46486391 3.22327815,2.46486391 C3.50029357,2.46486391 3.72272722,2.68846251 3.72272722,2.96346695 C3.72272722,4.32631526 3.72272722,5.68916175 3.72272722,7.05200825 C3.72272722,7.54062563 4.44655611,7.51263388 4.44655611,7.05200825 C4.44655611,5.32683357 4.44655611,3.52798476 4.44655611,2.04241148 C4.44655611,1.76483811 4.66972181,1.54199732 4.94420187,1.54199732 C5.22123515,1.54199732 5.44365094,1.76483811 5.44365094,2.04241148 C5.44365094,3.57267003 5.44365094,5.10292677 5.44365094,6.63318351 C5.44365094,7.12819512 6.16749769,7.0967606 6.16749769,6.63318351 C6.16749769,4.77070966 6.16749769,2.83144161 6.16749769,1.22833018 C6.16749769,0.950755003 6.38989564,0.727914208 6.66692891,0.727914208 L6.66694677,0.72657626 Z" id="Shape-Copy" fill="#444444"></path>
    </g>
</svg>