<?xml version="1.0" encoding="UTF-8"?>
<svg width="16px" height="16px" viewBox="0 0 16 16" version="1.1" xmlns="http://www.w3.org/2000/svg" xmlns:xlink="http://www.w3.org/1999/xlink">
    <!-- Generator: Sketch 51.3 (57544) - http://www.bohemiancoding.com/sketch -->
    <title>Icon-Search</title>
    <desc>Created with Sketch.</desc>
    <defs></defs>
    <g id="Icon-Search" stroke="none" stroke-width="1" fill="none" fill-rule="evenodd">
        <g id="Group" fill="#444444" fill-rule="nonzero">
            <path d="M12.0070052,11.3768403 L14.9475414,14.3213394 C15.142672,14.516733 15.1424588,14.8333154 14.9470652,15.028446 C14.7516716,15.2235767 14.4350892,15.2233635 14.2399586,15.0279699 L11.3003043,12.0843537 C10.1559481,13.0678907 8.66815256,13.6622024 7.04166667,13.6622024 C3.42865307,13.6622024 0.5,10.7296023 0.5,7.11239331 C0.5,3.49518427 3.42865307,0.562584232 7.04166667,0.562584232 C10.6546803,0.562584232 13.5833333,3.49518427 13.5833333,7.11239331 C13.5833333,8.74106719 12.9896034,10.2309493 12.0070052,11.3768403 Z M7.04166667,12.6622024 C10.1020938,12.6622024 12.5833333,10.1776189 12.5833333,7.11239331 C12.5833333,4.04716776 10.1020938,1.56258423 7.04166667,1.56258423 C3.98123954,1.56258423 1.5,4.04716776 1.5,7.11239331 C1.5,10.1776189 3.98123954,12.6622024 7.04166667,12.6622024 Z" id="Combined-Shape"></path>
        </g>
    </g>
</svg>