<?xml version="1.0" encoding="UTF-8"?>
<svg width="16px" height="16px" viewBox="0 0 16 16" version="1.1" xmlns="http://www.w3.org/2000/svg" xmlns:xlink="http://www.w3.org/1999/xlink">
    <!-- Generator: Sketch 51.3 (57544) - http://www.bohemiancoding.com/sketch -->
    <title>Icon-Rupee</title>
    <desc>Created with Sketch.</desc>
    <defs></defs>
    <g id="Icon-Rupee" stroke="none" stroke-width="1" fill="none" fill-rule="evenodd">
        <path d="M3.14106736,4.93 C3.14106736,5.17517537 3.3210094,5.39034478 3.5,5.42 L8.72121711,5.41118421 C7.79986751,6.83112607 6.36133546,7.61214747 4.40562097,7.75424839 C4.23058403,7.78102938 4.08276717,7.89839249 4.01700359,8.06280144 C3.95127822,8.22711486 3.97727681,8.41406007 4.08425115,8.5524841 L9.54454161,15.5528568 C9.65452827,15.6941405 9.83153408,15.7660148 10.0088827,15.7414054 C10.1862312,15.716796 10.3369791,15.5994417 10.404341,15.4335486 C10.4716795,15.2677133 10.4454834,15.0784756 10.3362912,14.9382099 L5.40449648,8.63831112 L6.12642413,8.43817276 C8.03587582,7.98411801 9.33586135,6.39991799 9.69343171,5.42914497 L12.16,5.44 C12.4361424,5.44 12.66,5.21614237 12.66,4.94 C12.66,4.66385763 12.4361424,4.44 12.16,4.44 L9.73185221,4.43164062 C9.60973821,3.85819706 9.41429263,3.34509192 9.14551547,2.89232521 C8.87673832,2.43955849 8.68911645,2.14211676 8.58264986,2 L12.16,2 C12.4361424,2 12.66,1.77614237 12.66,1.5 C12.66,1.22385763 12.4361424,1 12.16,1 L3.5,1 C3.22385763,1 3,1.22385763 3,1.5 C3,1.77614237 3.22385763,2 3.5,2 L7.28804525,2 C7.72228174,2.29334517 8.05758176,2.70339291 8.29394531,3.23014323 C8.53030886,3.75689355 8.64829125,4.16017914 8.64789248,4.44 L8.26894624,4.44 L3.55960877,4.43667759 C3.3184429,4.47639217 3.14106736,4.6851344 3.14106736,4.93 Z" id="Path" fill="#444444" fill-rule="nonzero"></path>
    </g>
</svg>