<?xml version="1.0" encoding="UTF-8"?>
<svg width="16px" height="16px" viewBox="0 0 16 16" version="1.1" xmlns="http://www.w3.org/2000/svg" xmlns:xlink="http://www.w3.org/1999/xlink">
    <!-- Generator: Sketch 51.3 (57544) - http://www.bohemiancoding.com/sketch -->
    <title>Icon-Edit</title>
    <desc>Created with Sketch.</desc>
    <defs></defs>
    <g id="Icon-Edit" stroke="none" stroke-width="1" fill="none" fill-rule="evenodd">
        <g id="icon_edit" fill="#444444" fill-rule="nonzero">
            <path d="M3.70741589,13.1809151 L11.8285115,4.80664295 L10.3442354,3.27609418 L2.24147048,11.6314642 L1.74304555,13.6873177 L3.70741589,13.1809151 Z M4.09324977,14.1141439 L1.1855482,14.8637314 C0.819996358,14.9579684 0.485863088,14.6286281 0.574808984,14.2617529 L1.30173443,11.2634033 C1.32275773,11.1766885 1.36660271,11.0971792 1.42871995,11.0331255 L9.98529778,2.20979479 C10.1817262,2.0072427 10.5067445,2.0072427 10.7031729,2.20979479 L12.8839491,4.45855702 C13.0720323,4.65250378 13.0720323,4.96078212 12.8839491,5.15472888 L4.32737122,13.9780595 C4.26333412,14.044093 4.18232222,14.0911816 4.09324977,14.1141439 Z M12.7240089,3.84816182 C12.9246055,3.64131164 13.0347407,3.36745797 13.0347407,3.07186664 C13.0347407,2.77627533 12.9246055,2.50242166 12.7240089,2.29557148 C12.3383177,1.89785635 11.646799,1.89785635 11.2611079,2.29557147 L11.0542003,2.5089295 L12.5384765,4.03947826 L12.7240089,3.84816182 Z M12.897414,5.10577765 C12.7009856,5.30832973 12.3759673,5.30832973 12.1795389,5.10577764 L9.99876276,2.85701543 C9.81067953,2.66306867 9.81067953,2.35479032 9.99876277,2.16084356 L10.5432328,1.59939963 C11.3217806,0.796580306 12.6633361,0.796580306 13.441884,1.59939959 C13.8240837,1.99351439 14.0347407,2.51731761 14.0347407,3.07186664 C14.0347407,3.62641569 13.8240837,4.15021891 13.441884,4.54433371 L12.897414,5.10577765 Z" id="Shape"></path>
        </g>
    </g>
</svg>