<?xml version="1.0" encoding="UTF-8"?>
<svg width="16px" height="16px" viewBox="0 0 16 16" version="1.1" xmlns="http://www.w3.org/2000/svg" xmlns:xlink="http://www.w3.org/1999/xlink">
    <!-- Generator: Sketch 51.3 (57544) - http://www.bohemiancoding.com/sketch -->
    <title>Icon-Calendar-Black</title>
    <desc>Created with Sketch.</desc>
    <defs></defs>
    <g id="Icon-Calendar-Black" stroke="none" stroke-width="1" fill="none" fill-rule="evenodd">
        <path d="M12.65625,12.25625 L12.65625,5.74375 C12.65625,5.5228361 12.4771639,5.34375 12.25625,5.34375 L3.74375,5.34375 C3.5228361,5.34375 3.34375,5.5228361 3.34375,5.74375 L3.34375,12.25625 C3.34375,12.4771639 3.5228361,12.65625 3.74375,12.65625 L12.25625,12.65625 C12.4771639,12.65625 12.65625,12.4771639 12.65625,12.25625 Z M11.05625,0.65625 L11.6,0.65625 C11.8209139,0.65625 12,0.8353361 12,1.05625 L12,1.8 C12,1.91045695 12.0895431,2 12.2,2 L12.65625,2 C13.0104184,2 13.3229153,2.13541531 13.59375,2.40625 C13.8645847,2.67708469 14,2.98958156 14,3.34375 L14,12.65625 C14,13.0104184 13.8645847,13.3229153 13.59375,13.59375 C13.3229153,13.8645847 13.0104184,14 12.65625,14 L3.34375,14 C2.96874813,14 2.65104297,13.8645847 2.390625,13.59375 C2.13020703,13.3229153 2,13.0104184 2,12.65625 L2,3.34375 C2,2.98958156 2.13020703,2.67708469 2.390625,2.40625 C2.65104297,2.13541531 2.96874813,2 3.34375,2 L3.8,2 C3.91045695,2 4,1.91045695 4,1.8 L4,1.05625 C4,0.8353361 4.1790861,0.65625 4.4,0.65625 L4.94375,0.65625 C5.1646639,0.65625 5.34375,0.8353361 5.34375,1.05625 L5.34375,1.8 C5.34375,1.91045695 5.43329305,2 5.54375,2 L10.45625,2 C10.5667069,2 10.65625,1.91045695 10.65625,1.8 L10.65625,1.05625 C10.65625,0.8353361 10.8353361,0.65625 11.05625,0.65625 Z M11.34375,8.4 L11.34375,10.94375 C11.34375,11.1646639 11.1646639,11.34375 10.94375,11.34375 L8.4,11.34375 C8.1790861,11.34375 8,11.1646639 8,10.94375 L8,8.4 C8,8.1790861 8.1790861,8 8.4,8 L10.94375,8 C11.1646639,8 11.34375,8.1790861 11.34375,8.4 Z" id="" fill="#444444"></path>
    </g>
</svg>