<?xml version="1.0" encoding="UTF-8"?>
<svg width="16px" height="16px" viewBox="0 0 16 16" version="1.1" xmlns="http://www.w3.org/2000/svg" xmlns:xlink="http://www.w3.org/1999/xlink">
    <!-- Generator: Sketch 51.3 (57544) - http://www.bohemiancoding.com/sketch -->
    <title>Icon-Move</title>
    <desc>Created with Sketch.</desc>
    <defs></defs>
    <g id="Icon-Move" stroke="none" stroke-width="1" fill="none" fill-rule="evenodd">
        <g id="Group-3" transform="translate(1.000000, 0.000000)" fill="#444444" fill-rule="nonzero">
            <path d="M1.73529412,8.5 L1.73529412,14.5882353 C1.73529412,14.8643777 1.51143649,15.0882353 1.23529412,15.0882353 C0.959151743,15.0882353 0.735294118,14.8643777 0.735294118,14.5882353 L0.735294118,1.41176471 C0.735294118,1.13562233 0.959151743,0.911764706 1.23529412,0.911764706 C1.51143649,0.911764706 1.73529412,1.13562233 1.73529412,1.41176471 L1.73529412,7.5 L12.3811285,7.5 L9.94056426,5.05943574 C9.74530211,4.8641736 9.74530211,4.54759111 9.94056426,4.35232896 C10.1358264,4.15706682 10.4524089,4.15706682 10.647671,4.35232896 L13.9417887,7.64644661 C14.1370508,7.84170876 14.1370508,8.15829124 13.9417887,8.35355339 L10.647671,11.647671 C10.4524089,11.8429332 10.1358264,11.8429332 9.94056426,11.647671 C9.74530211,11.4524089 9.74530211,11.1358264 9.94056426,10.9405643 L12.3811285,8.5 L1.73529412,8.5 Z" id="Combined-Shape"></path>
        </g>
    </g>
</svg>