<svg xmlns="http://www.w3.org/2000/svg" width="39" height="26">
    <g fill="#8A9399">
        <path d="M36.624 14.688a.4.4 0 1 1 .258.757l-2.2.75a.4.4 0 0 1-.529-.378V7.96a.4.4 0 0 1 .282-.382l2.2-.683a.4.4 0 1 1 .237.764l-1.919.596v7.004l1.671-.57zm-31.138-1.46a.4.4 0 1 1 .8 0v8a.4.4 0 1 1-.8 0v-8zM2.653 12a.4.4 0 1 1 .8 0v8a.4.4 0 1 1-.8 0v-8zM28.633.855L2.222 8.975l8.647 4.165 26.408-8.161L28.633.855zm.215-.833l9.767 4.66c.346.166.31.67-.058.784L10.96 13.995l-.308-.023L.886 9.268a.422.422 0 0 1 .059-.783L28.542 0l.306.022z"/>
        <path d="M1.49 9.56v11.256l8.924 4.118V13.857L1.49 9.559zm-.238-1.052l9.767 4.704c.146.07.238.218.238.38v12.001c0 .308-.319.512-.598.383L.892 21.47a.422.422 0 0 1-.245-.383V8.888c0-.311.325-.515.605-.38z"/>
        <path d="M11.257 13.903V25.01l26.754-8.773V5.635l-26.754 8.268zm-.546-.714L38.308 4.66a.422.422 0 0 1 .547.403v11.48a.422.422 0 0 1-.29.402l-27.598 9.05a.422.422 0 0 1-.553-.402V13.592c0-.185.12-.349.297-.403z"/>
        <path d="M31.653 8.726a.4.4 0 1 1 .8 0v8a.4.4 0 1 1-.8 0v-8zm-3 .986a.4.4 0 1 1 .8 0v8a.4.4 0 1 1-.8 0v-8zm-3 .938a.4.4 0 1 1 .8 0v8a.4.4 0 1 1-.8 0v-8zm-3 .968a.4.4 0 1 1 .8 0v8a.4.4 0 1 1-.8 0v-8zm-2.76.882a.4.4 0 1 1 .8 0v8a.4.4 0 1 1-.8 0v-8zm-3.005 1.039a.4.4 0 1 1 .8 0v8a.4.4 0 1 1-.8 0v-8zM12.63 15.629a.4.4 0 1 1-.259-.757l2.2-.75a.4.4 0 0 1 .53.378v7.857a.4.4 0 0 1-.282.382l-2.2.683a.4.4 0 1 1-.237-.764l1.919-.596v-7.003l-1.671.57zM8.074 14.599a.4.4 0 1 1 .8 0v8a.4.4 0 1 1-.8 0v-8z"/>
    </g>
</svg>
