<svg xmlns="http://www.w3.org/2000/svg" width="22" height="25">
    <path fill="none" stroke="#8A9399" d="M11.058.523L7.194 2.582l-1.552.817-1.301.692-.002-.003a2.364 2.364 0 0 1-.229.126l-.689.366c-.605.322-1.51.803-2.675 1.418v11.866l10.236 5.933 5.817-3.373 4.37-2.788.085-3.737-.036-7.892.002-.02L11.058.524zM.715 6.015l-.005.002c-.02.014-.031.022.02-.022-.016.016-.014.013.016-.037v.001l-.031.056zm-.003.005s0 0 0 0l.001-.003zM10.894 23.84s0 0 0 0h.003zM21.23 5.92l.007-.048a.166.166 0 0 0-.007.048zm.07.11l.002.001-.003-.001zM10.984.484l-.003-.002.003.002zm.114.014a.943.943 0 0 0 0 0zm3.6 11.691l2.668-1.56.01-2.567 4.126-2.386-.037 12.094-10.625 6.454V11.847l3.8-2.205.019.845.039 1.702zM11.055.206l10.604 5.702-4.116 2.378L6.83 2.459l.819-.437 3.169-1.69.236-.126zM7.125 2.3L17.83 8.122 14.63 9.97 3.965 3.967l.815-.427.958-.502 1.15-.612.237-.126zM4.263 3.887l.133-.001L14.926 9.8l-3.944 2.283L.32 5.914l.795-.423 2.909-1.546.112-.06.127.002zm0 0h0s0 0 0 0h0zm-3.8 1.79l10.66 6.17v12.356l-10.66-6.18V5.677zm17.2 2.228l-.016 2.892-3.224 1.873-.06-2.86.256-.148 2.289-1.322.754-.435zm3.946 5.492l.01.5.005.5c-.116 0-.24.009-.395.024l-.1-.995c.166-.016.325-.026.48-.03zm.02 1c-.128.002-.26.01-.4.024l-.05-.497-.05-.498c.184-.018.335-.028.485-.03l.015 1z"/>
</svg>
