<svg xmlns="http://www.w3.org/2000/svg" width="16" height="11">
  <path fill="none" stroke="#8A9399" stroke-width=".6" d="M1.83 4.866a.2.2 0 0 0 .028.054c.013.018.013.018.025.03l-.026-.026-.013-.012-.013-.013.047-.048.074-.023v.145a.302.302 0 0 1-.104-.05.301.301 0 0 0 .132.036H1.846c-.01 0-.01 0 .077-.014l-.105.033V4.91v-.024l-.013-.012.025-.008zm.114.143l-.126-.123s0 0 0 0v-.032a.396.396 0 0 0 .13.128l.004.002v.025h-.008zm-.096-.085a.334.334 0 0 1-.043-.037c.01.01.024.022.04.032zm.132.035a.3.3 0 0 0 .008 0h-.01zM.412 5.32a.048.048 0 0 0-.007-.002l.01-.003h.007c.015 0 .018 0-.01.005zM.39 5.315H.383h.012zm1.562 4.554v.009l.036-.011c-.012 0-.024 0-.036.002zm0 .078v.04l-.156.047a.305.305 0 0 1 .1-.183.252.252 0 0 0-.078.186v-.021-.026-.025-.047l.082-.025.052.054zm-.173.092l-.013.004V9.99l.091-.088.013-.013.013-.012.01.01a.542.542 0 0 0-.097.106 3.6 3.6 0 0 0-.017.047zm-1.373.309a.064.064 0 0 0-.018-.004c.033 0 .025.003-.016.014l.034-.01zm-.018-.004a1.08 1.08 0 0 1 .013 0zm1.43-.307v-.003zm.536.2a.318.318 0 0 1-.04.044.195.195 0 0 0 .035-.041zm-.226.195a.367.367 0 0 1-.088.01.28.28 0 0 0 .09-.015zm-.776-.891l.214-.064-.214.287v-.223zm.83-5.122c.015.012.029.024.041.037a.203.203 0 0 0-.04-.032zm1.368.048c-.019 0-.052-.034-.052-.045v5.086c0-.024.022-.046.052-.046.032 0 .052.023.052.046V4.422c0 .024-.022.045-.052.045zm1.76-.541c-.018 0-.051-.035-.051-.046v5.086c0-.024.022-.045.052-.045.032 0 .052.022.052.045V3.88c0 .025-.022.046-.052.046zm1.762-.624c-.019 0-.052-.034-.052-.045v5.086c0-.024.022-.046.052-.046.031 0 .052.023.052.046V3.257c0 .024-.022.045-.052.045zm1.76-.595c-.018 0-.052-.034-.052-.046v5.087c0-.025.023-.046.053-.046.031 0 .052.022.052.046V2.66c0 .025-.023.046-.052.046zm1.761-.546c-.018 0-.052-.034-.052-.045v5.086c0-.024.022-.046.052-.046.032 0 .052.023.052.046V2.116c0 .024-.022.045-.052.045zm1.761-.605c-.018 0-.052-.034-.052-.046v5.087c0-.025.022-.046.052-.046.032 0 .052.022.052.046V1.51c0 .025-.022.046-.052.046zm1.398 4.73l-.14.045v-.102l.139-.006c-.001-.012-.001-.013-.004-.019-.021-.039-.085-.065-.08-.067l.085-.026v.175zm.006-5.12l-.003.002.004-.002zm-.006-.068v-.015.028zm-.583 5.268a.527.527 0 0 1-.016-.096l.299-.023h.3V6.365s0 0 0 0h-.583z"/>
</svg>
