<svg xmlns="http://www.w3.org/2000/svg" width="23" height="23">
  <path fill="#444" d="M22.233.909c.257 0 .465.208.465.464v18.443a2.924 2.924 0 0 1-2.924 2.924H3.176a2.309 2.309 0 0 1-2.31-2.31V5.063c0-.257.209-.465.465-.465h3.074l.15-.15V1.373c0-.256.208-.464.465-.464h17.213zM1.796 20.43a1.38 1.38 0 0 0 2.759 0V5.677l-.15-.15H1.946l-.15.15V20.43zm19.972-.615V1.988l-.15-.15H5.635l-.15.15v18.443a2.253 2.253 0 0 1-.323 1.152l-.137.227h14.749a1.994 1.994 0 0 0 1.994-1.994zM8.708 5.526h9.836a.465.465 0 1 0 0-.929H8.708a.465.465 0 1 0 0 .93zm0 3.69h9.836a.465.465 0 1 0 0-.93H8.708a.465.465 0 1 0 0 .93zm0 3.688h9.836a.465.465 0 1 0 0-.93H8.708a.465.465 0 1 0 0 .93zm0 3.688h9.836a.465.465 0 0 0 0-.93H8.708a.465.465 0 0 0 0 .93z"/>
</svg>
