<svg xmlns="http://www.w3.org/2000/svg" width="16" height="16">
    <path fill="#444" fill-rule="evenodd" d="M6.667.001c-.573 0-1.058.403-1.189.939a1.206 1.206 0 0 0-.534-.125 1.23 1.23 0 0 0-1.207 1.038 1.207 1.207 0 0 0-.514-.115A1.23 1.23 0 0 0 2 2.962v4.984c.004 1.359.042 2.61.058 4.054a3.685 3.685 0 0 0 1.238 2.752c.737.661 1.712 1.05 2.73 1.166 2.033.232 4.304-.659 5.12-2.868.42-1.133.389-1.664.503-2.04.115-.374.385-.774 1.536-1.846.561-.523.774-1.22.439-1.73-.168-.256-.464-.415-.798-.448-.333-.033-.71.044-1.131.233A7.915 7.915 0 0 0 9.61 8.65V2.96a1.23 1.23 0 0 0-1.223-1.223c-.177 0-.345.039-.498.108v-.62A1.23 1.23 0 0 0 6.667 0v.001zm0 .726c.277 0 .5.222.5.5v5.525c0 .489.723.46.723 0v-3.79a.499.499 0 1 1 .997 0v6.774c0 .334.544.43.707.148.153-.354.576-.802 1.053-1.171a7.435 7.435 0 0 1 1.343-.83v-.001c.34-.152.6-.189.766-.173.165.017.227.07.263.124.073.111.074.429-.326.801-1.176 1.095-1.568 1.616-1.736 2.166-.168.55-.1.947-.49 2-.686 1.858-2.588 2.6-4.36 2.4-.887-.102-1.724-.445-2.328-.987-.605-.542-.988-1.27-.997-2.22-.017-1.452-.055-2.7-.058-4.046V2.963a.498.498 0 1 1 .999 0v4.089c0 .489.724.46.724 0v-5.01a.498.498 0 1 1 .997 0v4.591c0 .495.723.464.723 0V1.228c0-.277.223-.5.5-.5V.727z"/>
</svg>
