<svg xmlns="http://www.w3.org/2000/svg" width="16" height="16">
    <path fill="#444" d="M3.707 13.18l8.122-8.373-1.485-1.53-8.103 8.354-.498 2.056 1.964-.506zm.386.934l-2.907.75a.5.5 0 0 1-.611-.602l.727-2.999a.5.5 0 0 1 .127-.23L9.985 2.21a.5.5 0 0 1 .718 0l2.18 2.249a.5.5 0 0 1 0 .696l-8.556 8.823a.5.5 0 0 1-.234.136zm8.631-10.266c.2-.207.31-.48.31-.776 0-.296-.11-.57-.31-.776a1.046 1.046 0 0 0-1.463 0l-.207.213 1.484 1.53.186-.19zm.173 1.258a.5.5 0 0 1-.717 0L9.999 2.857a.5.5 0 0 1 0-.696l.544-.562c.779-.802 2.12-.802 2.899 0 .382.395.593.918.593 1.473 0 .554-.21 1.078-.593 1.472l-.545.562z"/>
</svg>
