<svg xmlns="http://www.w3.org/2000/svg" width="16" height="16">
    <g fill="none" fill-rule="evenodd">
        <path fill="#F5F5F5" d="M8 1.344c1.833 0 3.401.65 4.703 1.953 1.302 1.302 1.953 2.87 1.953 4.703 0 1.833-.65 3.401-1.953 4.703-1.302 1.302-2.87 1.953-4.703 1.953-1.833 0-3.401-.65-4.703-1.953C1.995 11.401 1.344 9.833 1.344 8c0-1.833.65-3.401 1.953-4.703C4.599 1.995 6.167 1.344 8 1.344z"/>
        <path fill="#444" d="M11.344 8.256v-.512a.4.4 0 0 0-.4-.4H8.856a.2.2 0 0 1-.2-.2V5.056a.4.4 0 0 0-.4-.4h-.512a.4.4 0 0 0-.4.4v2.088a.2.2 0 0 1-.2.2H5.056a.4.4 0 0 0-.4.4v.512c0 .221.18.4.4.4h2.088c.11 0 .2.09.2.2v2.088c0 .22.179.4.4.4h.512a.4.4 0 0 0 .4-.4V8.856c0-.11.09-.2.2-.2h2.088a.4.4 0 0 0 .4-.4z"/>
    </g>
</svg>
