<svg xmlns="http://www.w3.org/2000/svg" width="16" height="16">
    <path fill="#8A9399" fill-rule="evenodd" d="M12.656 12.256V5.744a.4.4 0 0 0-.4-.4H3.744a.4.4 0 0 0-.4.4v6.512c0 .221.179.4.4.4h8.512a.4.4 0 0 0 .4-.4zm-1.6-11.6h.544c.22 0 .4.18.4.4V1.8c0 .11.09.2.2.2h.456c.354 0 .667.135.938.406.27.271.406.584.406.938v9.312c0 .354-.135.667-.406.938-.271.27-.584.406-.938.406H3.344c-.375 0-.693-.135-.953-.406S2 13.01 2 12.656V3.344c0-.354.13-.667.39-.938.261-.27.579-.406.954-.406H3.8a.2.2 0 0 0 .2-.2v-.744c0-.22.18-.4.4-.4h.544c.22 0 .4.18.4.4V1.8c0 .11.09.2.2.2h4.912a.2.2 0 0 0 .2-.2v-.744c0-.22.18-.4.4-.4zm.288 7.744v2.544a.4.4 0 0 1-.4.4H8.4a.4.4 0 0 1-.4-.4V8.4c0-.22.18-.4.4-.4h2.544c.22 0 .4.18.4.4z"/>
</svg>
