<svg xmlns="http://www.w3.org/2000/svg" width="16" height="16">
    <path fill="#444" d="M13.842 6.075a.377.377 0 0 0-.112-.263l-4.703-4.7A.374.374 0 0 0 8.764 1H4.061A2.064 2.064 0 0 0 2 3.068v10.864C2 15.074 2.923 16 4.061 16h7.72a2.064 2.064 0 0 0 2.061-2.068V6.075zm-4.666-3.76L12.53 5.68h-1.855a1.501 1.501 0 0 1-1.499-1.503V2.316zm3.917 11.617c0 .727-.588 1.316-1.312 1.316h-7.72c-.724 0-1.311-.589-1.311-1.316V3.068c0-.727.587-1.316 1.311-1.316h4.366v2.425a2.252 2.252 0 0 0 2.248 2.255h2.418v7.5z"/>
</svg>
