<svg xmlns="http://www.w3.org/2000/svg" width="40" height="20">
    <path fill="#8A9399" fill-rule="evenodd" d="M27.665.485a.443.443 0 0 1-.482.363H24.12l-1.175 3.92a.435.435 0 0 1-.41.303H1.41v6.903h2.535V6.338h.845v5.636h2.535V6.338h.845v5.636h2.536V6.338h.845v5.636h2.535V6.338h.845v5.636h2.535V6.338h.845v5.636h2.535V6.338h.845v5.636h2.483l.04-9.45c0-.221.2-.422.422-.422H35.29a.426.426 0 0 1 .225.118c3.07 3.079 3.921 7.379 3.921 9.62v5.464a.439.439 0 0 1-.422.422h-6.457a2.974 2.974 0 0 1-2.839 2.125 2.978 2.978 0 0 1-2.839-2.111H14.811a2.978 2.978 0 0 1-2.839 2.111 2.974 2.974 0 0 1-2.839-2.125H7.205a2.974 2.974 0 0 1-2.838 2.125 2.974 2.974 0 0 1-2.84-2.125h-.54a.439.439 0 0 1-.423-.422V4.65c0-.221.201-.423.422-.423h21.232L23.394.294a.435.435 0 0 1 .409-.29h3.38c0-.014.423-.014.482.481zm-2.608 2.461l-.04 9.45a.439.439 0 0 1-.422.422H1.41v4.064a2.963 2.963 0 0 1 2.958-2.943 2.963 2.963 0 0 1 2.957 2.943h1.69a2.963 2.963 0 0 1 2.958-2.943 2.963 2.963 0 0 1 2.958 2.956h11.83a2.963 2.963 0 0 1 2.958-2.956 2.963 2.963 0 0 1 2.958 2.943h5.915V11.84c0-1.99-.831-6.048-3.578-8.895h-9.956zM33.6 4.65c.047.01.092.028.132.052 1.177.706 1.962 1.973 2.456 3.51.495 1.539.713 3.374.713 5.306a.439.439 0 0 1-.422.422h-3.803a.434.434 0 0 1-.41-.33c-.17-.684-.83-1.466-1.769-2.059-.939-.593-2.14-.99-3.314-.99a.439.439 0 0 1-.422-.422V5.071c0-.221.2-.422.422-.422H33.6zm-.224.844h-5.77v4.29c1.21.082 2.386.452 3.34 1.055.948.598 1.635 1.387 1.968 2.256h3.116c-.03-1.704-.214-3.325-.634-4.632-.444-1.379-1.123-2.397-2.02-2.969zm-3.658 9.29c-1.171 0-2.112.94-2.112 2.112 0 1.171.94 2.111 2.112 2.111 1.172 0 2.113-.94 2.113-2.111 0-1.28-.845-2.125-2.113-2.111zm-17.746 0c-1.172 0-2.113.94-2.113 2.112 0 1.171.941 2.111 2.113 2.111 1.172 0 2.113-.94 2.113-2.111 0-1.28-.845-2.125-2.113-2.111zm-7.605 0c-1.172 0-2.113.94-2.113 2.112 0 1.171.94 2.111 2.113 2.111 1.171 0 2.112-.94 2.112-2.111 0-1.28-.845-2.125-2.112-2.111zm7.605 1.384a.729.729 0 1 1 0 1.457.729.729 0 0 1 0-1.457zm17.746 0a.729.729 0 1 1 0 1.457.729.729 0 0 1 0-1.457zm-25.351 0a.729.729 0 1 1 0 1.457.729.729 0 0 1 0-1.457z"/>
</svg>
