<svg xmlns="http://www.w3.org/2000/svg" width="16" height="16">
    <g fill="none" fill-rule="evenodd">
        <path fill="#F5F5F5" d="M8 1.344c1.833 0 3.401.65 4.703 1.953 1.302 1.302 1.953 2.87 1.953 4.703 0 1.833-.65 3.401-1.953 4.703-1.302 1.302-2.87 1.953-4.703 1.953-1.833 0-3.401-.65-4.703-1.953C1.995 11.401 1.344 9.833 1.344 8c0-1.833.65-3.401 1.953-4.703C4.599 1.995 6.167 1.344 8 1.344z"/>
        <path fill="#444" d="M11.06 10.123L9.08 8.141a.2.2 0 0 1 0-.282l1.982-1.982a.4.4 0 0 0 0-.566l-.372-.372a.4.4 0 0 0-.566 0L8.141 6.921a.2.2 0 0 1-.282 0L5.877 4.94a.4.4 0 0 0-.566 0l-.372.372a.4.4 0 0 0 0 .566l1.982 1.982a.2.2 0 0 1 0 .282L4.94 10.123a.4.4 0 0 0 0 .566l.372.372a.4.4 0 0 0 .566 0l1.982-1.982a.2.2 0 0 1 .282 0l1.982 1.982a.4.4 0 0 0 .566 0l.372-.372a.4.4 0 0 0 0-.566z"/>
    </g>
</svg>
