<svg xmlns="http://www.w3.org/2000/svg" width="27" height="26">
    <g fill="none" fill-rule="evenodd">
        <path stroke="#444" d="M15.5 23c0 1.147.9 2.077 2.012 2.077 1.111 0 2.012-.93 2.012-2.077m-9.176-3.4l.064-.626c.08-.79.147-2.096.147-2.894v-3.144c0-3.176 1.992-5.943 4.857-6.909C15.533 4.892 16.472 4 17.618 4c1.147 0 2.085.893 2.203 2.027 2.864.966 4.857 3.735 4.857 6.909v3.144c0 .798.066 2.101.147 2.894l.063.626h.912a1 1 0 0 1 1 1c0 .552-.448 1.081-1 1.081H9.5c-.552 0-1-.529-1-1.081a1 1 0 0 1 1-1h.848z"/>
        <g transform="translate(.5)">
            <circle cx="8" cy="8" r="8" fill="#F67F65"/>
            <text fill="#FFF" font-family="Rubik-Medium, Rubik" font-size="10" font-weight="400">
                <tspan x="2.136" y="9.35">12</tspan>
            </text>
        </g>
    </g>
</svg>
