<svg xmlns="http://www.w3.org/2000/svg" width="24" height="27">
    <path fill="none" stroke="#8A9399" d="M12.063.52L7.86 2.76l-1.683.886-1.41.75-.002-.004c-.07.045-.11.065-.247.137l-.747.396c-.66.35-1.646.875-2.92 1.548v12.903l11.13 6.452 6.325-3.667 4.752-3.032.093-4.072-.039-8.55.006-.044L12.063.52zM.827 6.486c-.021.014-.03.02.017-.021-.018.018-.018.018.006-.022v.003a1.466 1.466 0 0 1-.023.04zM.818 6.5s0 0 0 0l.001-.003zm.032-.073a50010.807 50010.807 0 0 0 0-.001v.001zm11.143 19.416s0 0 0 0 0 0 0 0zm-.092.023s0 0 0 0l.006-.003zM23.123 6.413l.006-.04a.138.138 0 0 0-.006.04zm.054.083l.003.001-.003-.001zM12.102.498a1.382 1.382 0 0 0 0 0zm3.865 12.779l2.973-1.739.01-2.78 4.386-2.537-.04 13.007-11.427 6.94v-13.31l4.034-2.341.02.845.044 1.915zM12.06.27L23.461 6.4 19.087 8.93 7.571 2.664l.82-.437 3.432-1.83.236-.126zM7.801 2.539L19.315 8.8l-3.383 1.952L4.466 4.299l.815-.428 1.038-.543 1.245-.663.237-.126zm-3.1 1.713h.134l11.335 6.366-4.19 2.425L.515 6.409l.796-.423 3.15-1.675.113-.06.127.001zM.628 6.222l11.463 6.636v13.29L.628 19.5V6.222zm18.547 2.414l-.015 3.037-3.412 1.981-.063-3.003.256-.148 2.48-1.432.754-.435zm4.32 5.919l.01.5.004.5c-.128.001-.262.01-.432.027l-.099-.995c.178-.018.349-.029.516-.032zm.019 1c-.14.003-.285.012-.437.027l-.05-.498-.049-.497c.197-.02.36-.03.521-.032l.015 1z"/>
</svg>
