<svg xmlns="http://www.w3.org/2000/svg" width="24" height="17">
  <g fill="none" fill-rule="evenodd">
    <path fill="#8A9399" fill-rule="nonzero" d="M17.148.913L1.3 5.785 6.49 8.284l15.844-4.897L17.148.913zm.129-.5l5.86 2.796c.208.1.186.403-.034.47L6.544 8.798l-.184-.014L.5 5.961a.253.253 0 0 1 .035-.47L17.093.4l.184.013z"/>
    <path fill="#8A9399" fill-rule="nonzero" d="M.863 6.136v6.754l5.353 2.47V8.714L.863 6.136zm-.144-.631l5.86 2.822c.088.042.143.13.143.228v7.2a.253.253 0 0 1-.359.23l-5.86-2.703a.253.253 0 0 1-.147-.23v-7.32c0-.186.195-.308.363-.227z"/>
    <path fill="#8A9399" fill-rule="nonzero" d="M6.722 8.742v6.665l16.053-5.264V3.781L6.722 8.741zm-.327-.429l16.558-5.117a.253.253 0 0 1 .328.242v6.888c0 .11-.07.207-.174.24l-16.559 5.43a.253.253 0 0 1-.332-.24V8.555c0-.111.073-.209.179-.242z"/>
    <path stroke="#8A9399" stroke-width=".6" d="M9.118 8.635v-.15.15zm-.288.231a.2.2 0 0 0 .028.054c.013.018.013.018.025.03l-.026-.026-.013-.012-.013-.013.047-.048.074-.023v.145a.302.302 0 0 1-.104-.05.301.301 0 0 0 .132.036H8.846c-.01 0-.01 0 .077-.014l-.105.033V8.91v-.024l-.013-.012.025-.008zm.114.143l-.126-.123s0 0 0 0v-.032a.396.396 0 0 0 .13.128l.004.002v.025h-.008zm-.096-.085a.334.334 0 0 1-.043-.037c.01.01.024.022.04.032zm.132.035a.3.3 0 0 0 .008 0h-.01zm-1.568.361a.048.048 0 0 0-.007-.002l.01-.003h.007c.015 0 .018 0-.01.005zm-.022-.005h-.007.012zm1.562 4.554v.009l.036-.011c-.012 0-.024 0-.036.002zm0 .078v.04l-.156.047a.305.305 0 0 1 .06-.14.304.304 0 0 0-.038.143v-.021-.026-.025-.047l.082-.025.052.054zm-.173.092l-.013.004v-.054l.091-.088.013-.013.013-.012.01.01a.542.542 0 0 0-.097.106 3.6 3.6 0 0 0-.017.047zm-1.367.311a.048.048 0 0 0-.006-.002l.01-.004h.006c.015 0 .018 0-.01.006zm-.022-.005h-.007.012zm1.569-.495a.355.355 0 0 1 .003 0zm-.103.044a.318.318 0 0 1 .04-.043.195.195 0 0 0-.036.04zm-.038.143v-.003zm.536.2a.318.318 0 0 1-.04.044.195.195 0 0 0 .035-.041zm-1.002-.696l.214-.064-.214.287v-.223zm.83-5.122c.015.012.029.024.041.037a.203.203 0 0 0-.04-.032zM10.55 8.467c-.019 0-.052-.034-.052-.045v5.086c0-.024.022-.046.052-.046.032 0 .052.023.052.046V8.422c0 .024-.022.045-.052.045zM12.31 7.926c-.018 0-.051-.035-.051-.046v5.086c0-.024.022-.045.052-.045.032 0 .052.022.052.045V7.88c0 .025-.022.046-.052.046zM14.072 7.302c-.019 0-.052-.034-.052-.045v5.086c0-.024.022-.046.052-.046.031 0 .052.023.052.046V7.257c0 .024-.022.045-.052.045zM15.833 6.707c-.02 0-.053-.034-.053-.046v5.087c0-.025.023-.046.053-.046.031 0 .052.022.052.046V6.66c0 .025-.023.046-.052.046zM17.593 6.161c-.018 0-.052-.034-.052-.045v5.086c0-.024.022-.046.052-.046.032 0 .052.023.052.046V6.116c0 .024-.022.045-.052.045zM19.354 5.556c-.018 0-.052-.034-.052-.046v5.087c0-.025.022-.046.052-.046.032 0 .052.022.052.046V5.51c0 .025-.022.046-.052.046zM1.927 7.502c-.048 0-.049 0-.046.01l-.006 5.032c0-.026.022-.047.052-.047.032 0 .052.022.052.047V7.455c0 .026-.022.047-.052.047zM3.342 8.28c-.036 0-.05-.016-.048.001l-.004 5.04c0-.012.034-.046.052-.046.032 0 .052.022.052.046V8.233c0 .025-.022.047-.052.047zM4.894 9.02c-.032 0-.046-.012-.046-.015l-.006 5.06c0-.028.023-.05.052-.05a.05.05 0 0 1 .052.05V8.972c0 .027-.023.049-.052.049zM20.752 10.286l-.14.045v-.102l.139-.006c-.001-.012-.001-.013-.004-.019-.021-.039-.085-.065-.08-.067l.085-.026v.175zm.006-5.12l-.003.002.004-.002zm-.006-.068v-.015.028zm-.583 5.268a.527.527 0 0 1-.016-.096l.299-.023h.3V10.365s0 0 0 0h-.583z"/>
  </g>
</svg>
