<svg xmlns="http://www.w3.org/2000/svg" width="40" height="27">
    <g fill="none" fill-rule="evenodd">
        <path fill="#8A9399" fill-rule="nonzero" d="M28.58.855L2.169 8.975l8.647 4.165 26.408-8.161L28.58.855zm.215-.833l9.767 4.66c.346.166.31.67-.058.784l-27.597 8.529-.308-.023L.833 9.268a.422.422 0 0 1 .059-.783L28.489 0l.306.022z"/>
        <path fill="#8A9399" fill-rule="nonzero" d="M1.438 9.56v11.256l8.923 4.118V13.857L1.438 9.559zm-.239-1.052l9.767 4.704c.146.07.238.218.238.38v12.001c0 .308-.319.512-.598.383L.839 21.47a.422.422 0 0 1-.245-.383V8.888c0-.311.325-.515.605-.38z"/>
        <path fill="#8A9399" fill-rule="nonzero" d="M11.204 13.903V25.01l26.754-8.773V5.635l-26.754 8.268zm-.546-.714L38.255 4.66a.422.422 0 0 1 .547.403v11.48a.422.422 0 0 1-.29.402l-27.598 9.05a.422.422 0 0 1-.553-.402V13.592c0-.185.12-.349.297-.403z"/>
        <path stroke="#8A9399" d="M14.717 14.11a.364.364 0 0 0 .046.09c.023.03.023.03.042.05l-.043-.043-.021-.02-.022-.022.097-.1.055.177-.174.055v-.113-.04l-.021-.02.041-.014zm.19.239l-.21-.205v-.002-.058a.465.465 0 0 0 .217.22l.006.002v.043h-.012zm.013-.06a.528.528 0 0 1-.244-.145.41.41 0 0 0 .29.12H14.722v-.155l.198-.063v.244zm-.244-.145h0zm.29.12h.015-.019zm-2.53.739l-.078.024c.018-.007.054-.074.044-.087-.011-.044-.03-.068-.06-.077l.016-.005h.077v.145zm-.12-.145h-.01.019zm2.604 7.59v.006l.061-.01a.529.529 0 0 0-.06.004zm0 .13v.068l-.26.078a.508.508 0 0 1 .167-.306.41.41 0 0 0-.13.31v-.035-.042-.042-.1l.135-.042h.004a.465.465 0 0 0-.175.186l-.029.079-.022.007v-.09l.152-.147.022-.021.021-.021.115.118zm-2.485.81l-.077.022c.018-.007.054-.074.044-.087-.011-.043-.03-.067-.06-.077l.017-.005h.076v.146zm-.113-.147h-.016.026zm2.745-.839s0 0 0 0 0 0 0 0zm-.24.016s0 0 0 0 0 0 0 0zm-.13.31a.6.6 0 0 0 0 .007v-.012zm.827.407s0 0 0 0 0 0 0 0zm-.151-9.708s0 0 0 0 0 0 0 0zm2.21.019c-.03 0-.086-.058-.086-.077v8.478c0-.041.036-.076.086-.076.053 0 .087.037.087.076v-8.478c0 .041-.037.077-.087.077z"/>
        <path fill="#8A9399" fill-rule="nonzero" d="M20.518 12.043c.248 0 .413.17.413.424v8.477a.42.42 0 0 1-.413.424.42.42 0 0 1-.413-.424v-8.477a.42.42 0 0 1 .413-.424zm2.935-1.04c.248 0 .413.17.413.425v8.477a.42.42 0 0 1-.413.424.42.42 0 0 1-.413-.424v-8.477a.42.42 0 0 1 .413-.424zm2.935-.992c.248 0 .413.17.413.424v8.478a.42.42 0 0 1-.413.424.42.42 0 0 1-.414-.424v-8.478a.42.42 0 0 1 .414-.424zm2.935-.909c.248 0 .413.17.413.424v8.478a.42.42 0 0 1-.413.423.42.42 0 0 1-.414-.423V9.526a.42.42 0 0 1 .414-.424zm2.934-1.009c.248 0 .414.17.414.424v8.478a.42.42 0 0 1-.414.424.42.42 0 0 1-.413-.424V8.517a.42.42 0 0 1 .413-.424z"/>
        <path stroke="#8A9399" d="M3.212 11.837c-.08 0-.08 0-.077.018l-.01 8.385c0-.043.038-.078.087-.078.053 0 .087.037.087.078v-8.482c0 .043-.037.079-.087.079zm2.358 1.296c-.06 0-.084-.026-.08.002l-.006 8.4c0-.02.056-.077.086-.077.053 0 .087.037.087.078v-8.481c0 .042-.037.078-.087.078zm2.587 1.235c-.054 0-.076-.022-.077-.027l-.01 8.434c0-.046.038-.082.087-.082.051 0 .087.038.087.082v-8.49c0 .047-.039.083-.087.083zm28.81 1.343l-.015-.027.414-.28-.464.188c-.03-.076.005-.142.025-.15l-2.298.729v-.176h-.043V7.947l2.362-.71c-.03.005-.08-.022-.088-.041-.03-.076.005-.142.024-.15l-2.176.659-.085.026a.654.654 0 0 0 .006-.093h-.332l-.083-.084v.084h-.085l.085.086v.33a.604.604 0 0 0 .139-.015v7.956h-.224c.08 0 .157.022.224.06v.108h-.027l.027.005v.227l-.182.184h.386l.04.126v-.126h.074a.618.618 0 0 0-.012-.126l2.306-.741.003-.001zm0 0l.028-.01c-.021.009-.024.015-.027.01zm-2.736 1.444a1.703 1.703 0 0 1-.005-.005zm-.474-9.832s0 0 0 0 0 0 0 0z"/>
    </g>
</svg>
